<mxfile host="app.diagrams.net" modified="2021-07-12T15:12:56.159Z" agent="5.0 (Windows NT 10.0; Win64; x64) AppleWebKit/537.36 (KHTML, like Gecko) Chrome/91.0.4472.124 Safari/537.36" etag="G261PQ3qpnW4ux-47n1T" version="14.8.5" type="github">
  <diagram id="C5RBs43oDa-KdzZeNtuy" name="Page-1">
    <mxGraphModel dx="1422" dy="762" grid="1" gridSize="10" guides="1" tooltips="1" connect="1" arrows="1" fold="1" page="1" pageScale="1" pageWidth="827" pageHeight="1169" math="0" shadow="0">
      <root>
        <mxCell id="WIyWlLk6GJQsqaUBKTNV-0" />
        <mxCell id="WIyWlLk6GJQsqaUBKTNV-1" parent="WIyWlLk6GJQsqaUBKTNV-0" />
        <mxCell id="Q6NvDaof21Lmz1zF1uVE-29" value="Show JSON tools" style="rounded=1;whiteSpace=wrap;html=1;fillColor=#c1e4f7;shadow=1;" parent="WIyWlLk6GJQsqaUBKTNV-1" vertex="1">
          <mxGeometry x="513.5" y="630" width="120" height="20" as="geometry" />
        </mxCell>
        <mxCell id="w-_JFtuls0eAX1BSivLM-3" style="edgeStyle=orthogonalEdgeStyle;rounded=0;orthogonalLoop=1;jettySize=auto;html=1;exitX=0.5;exitY=1;exitDx=0;exitDy=0;entryX=0.5;entryY=0;entryDx=0;entryDy=0;" edge="1" parent="WIyWlLk6GJQsqaUBKTNV-1" source="Q6NvDaof21Lmz1zF1uVE-80" target="Q6NvDaof21Lmz1zF1uVE-172">
          <mxGeometry relative="1" as="geometry" />
        </mxCell>
        <mxCell id="Q6NvDaof21Lmz1zF1uVE-80" value="Get Security Mapping" style="rounded=1;whiteSpace=wrap;html=1;shadow=1;fillColor=#00274f;fontColor=#FFFFFF;" parent="WIyWlLk6GJQsqaUBKTNV-1" vertex="1">
          <mxGeometry x="520" y="760" width="120" height="30" as="geometry" />
        </mxCell>
        <mxCell id="w-_JFtuls0eAX1BSivLM-4" style="edgeStyle=orthogonalEdgeStyle;rounded=0;orthogonalLoop=1;jettySize=auto;html=1;exitX=0.5;exitY=1;exitDx=0;exitDy=0;entryX=0.5;entryY=0;entryDx=0;entryDy=0;" edge="1" parent="WIyWlLk6GJQsqaUBKTNV-1" source="Q6NvDaof21Lmz1zF1uVE-81" target="Q6NvDaof21Lmz1zF1uVE-174">
          <mxGeometry relative="1" as="geometry" />
        </mxCell>
        <mxCell id="Q6NvDaof21Lmz1zF1uVE-81" value="Run" style="rounded=1;whiteSpace=wrap;html=1;shadow=1;fillColor=#00274f;fontColor=#FFFFFF;" parent="WIyWlLk6GJQsqaUBKTNV-1" vertex="1">
          <mxGeometry x="513.5" y="660" width="120" height="30" as="geometry" />
        </mxCell>
        <mxCell id="Q6NvDaof21Lmz1zF1uVE-172" value=".csv file" style="rounded=1;whiteSpace=wrap;html=1;shadow=1;fillColor=#E6E6E6;" parent="WIyWlLk6GJQsqaUBKTNV-1" vertex="1">
          <mxGeometry x="520" y="810" width="120" height="20" as="geometry" />
        </mxCell>
        <mxCell id="Q6NvDaof21Lmz1zF1uVE-174" value=".csv file" style="rounded=1;whiteSpace=wrap;html=1;shadow=1;fillColor=#E6E6E6;" parent="WIyWlLk6GJQsqaUBKTNV-1" vertex="1">
          <mxGeometry x="513.5" y="720" width="120" height="20" as="geometry" />
        </mxCell>
        <mxCell id="Q6NvDaof21Lmz1zF1uVE-188" value="" style="group" parent="WIyWlLk6GJQsqaUBKTNV-1" vertex="1" connectable="0">
          <mxGeometry x="1150" y="20" width="130.01" height="1080" as="geometry" />
        </mxCell>
        <mxCell id="Q6NvDaof21Lmz1zF1uVE-9" value="Alerts" style="rounded=1;whiteSpace=wrap;html=1;fillColor=#c1e4f7;shadow=1;fontStyle=1" parent="Q6NvDaof21Lmz1zF1uVE-188" vertex="1">
          <mxGeometry x="10" width="120" height="40" as="geometry" />
        </mxCell>
        <mxCell id="Q6NvDaof21Lmz1zF1uVE-44" value="People" style="rounded=1;whiteSpace=wrap;html=1;fillColor=#c1e4f7;shadow=1;" parent="Q6NvDaof21Lmz1zF1uVE-188" vertex="1">
          <mxGeometry x="20.00999999999999" y="490" width="100" height="20" as="geometry" />
        </mxCell>
        <mxCell id="Q6NvDaof21Lmz1zF1uVE-45" value="Cases" style="rounded=1;whiteSpace=wrap;html=1;fillColor=#c1e4f7;shadow=1;" parent="Q6NvDaof21Lmz1zF1uVE-188" vertex="1">
          <mxGeometry x="20.00999999999999" y="510" width="100" height="20" as="geometry" />
        </mxCell>
        <mxCell id="tMFDblHWtB-Guuc8-DbZ-0" style="edgeStyle=orthogonalEdgeStyle;rounded=0;orthogonalLoop=1;jettySize=auto;html=1;exitX=0;exitY=0.5;exitDx=0;exitDy=0;entryX=0;entryY=0.5;entryDx=0;entryDy=0;" parent="Q6NvDaof21Lmz1zF1uVE-188" source="Q6NvDaof21Lmz1zF1uVE-88" target="Q6NvDaof21Lmz1zF1uVE-87" edge="1">
          <mxGeometry relative="1" as="geometry">
            <Array as="points">
              <mxPoint x="-10" y="100" />
              <mxPoint x="-10" y="130" />
            </Array>
          </mxGeometry>
        </mxCell>
        <mxCell id="Q6NvDaof21Lmz1zF1uVE-88" value="Add Factor Alert" style="rounded=1;whiteSpace=wrap;html=1;shadow=1;fillColor=#00274f;fontColor=#FFFFFF;" parent="Q6NvDaof21Lmz1zF1uVE-188" vertex="1">
          <mxGeometry x="10.009999999999991" y="85" width="120" height="30" as="geometry" />
        </mxCell>
        <mxCell id="tMFDblHWtB-Guuc8-DbZ-10" style="edgeStyle=orthogonalEdgeStyle;rounded=0;orthogonalLoop=1;jettySize=auto;html=1;exitX=0.5;exitY=1;exitDx=0;exitDy=0;entryX=0.5;entryY=0;entryDx=0;entryDy=0;" parent="Q6NvDaof21Lmz1zF1uVE-188" source="Q6NvDaof21Lmz1zF1uVE-89" target="Q6NvDaof21Lmz1zF1uVE-144" edge="1">
          <mxGeometry relative="1" as="geometry" />
        </mxCell>
        <mxCell id="Q6NvDaof21Lmz1zF1uVE-89" value="Add Screen Alert" style="rounded=1;whiteSpace=wrap;html=1;shadow=1;fillColor=#00274f;fontColor=#FFFFFF;" parent="Q6NvDaof21Lmz1zF1uVE-188" vertex="1">
          <mxGeometry x="10.009999999999991" y="775" width="120" height="30" as="geometry" />
        </mxCell>
        <mxCell id="Q6NvDaof21Lmz1zF1uVE-90" value="Save" style="rounded=1;whiteSpace=wrap;html=1;shadow=1;fillColor=#00274f;fontColor=#FFFFFF;" parent="Q6NvDaof21Lmz1zF1uVE-188" vertex="1">
          <mxGeometry x="10" y="1050" width="120" height="30" as="geometry" />
        </mxCell>
        <mxCell id="Q6NvDaof21Lmz1zF1uVE-143" value="Add Portfolio(s)" style="rounded=1;whiteSpace=wrap;html=1;shadow=1;fillColor=#075a82;fontColor=#FFFFFF;" parent="Q6NvDaof21Lmz1zF1uVE-188" vertex="1">
          <mxGeometry x="10" y="940" width="120" height="30" as="geometry" />
        </mxCell>
        <mxCell id="Q6NvDaof21Lmz1zF1uVE-144" value="Select Screen" style="rounded=1;whiteSpace=wrap;html=1;shadow=1;fillColor=#075a82;fontColor=#FFFFFF;" parent="Q6NvDaof21Lmz1zF1uVE-188" vertex="1">
          <mxGeometry x="10.009999999999991" y="810" width="120" height="30" as="geometry" />
        </mxCell>
        <mxCell id="Q6NvDaof21Lmz1zF1uVE-147" value="Add Portfolio(s)" style="rounded=1;whiteSpace=wrap;html=1;shadow=1;fillColor=#075a82;fontColor=#FFFFFF;" parent="Q6NvDaof21Lmz1zF1uVE-188" vertex="1">
          <mxGeometry x="10.009999999999991" y="610" width="120" height="30" as="geometry" />
        </mxCell>
        <mxCell id="Q6NvDaof21Lmz1zF1uVE-149" value="All Issuers" style="rounded=1;whiteSpace=wrap;html=1;shadow=1;fillColor=#075a82;fontColor=#FFFFFF;" parent="Q6NvDaof21Lmz1zF1uVE-188" vertex="1">
          <mxGeometry x="10.009999999999991" y="540" width="120" height="30" as="geometry" />
        </mxCell>
        <mxCell id="Q6NvDaof21Lmz1zF1uVE-152" value="Add Portfolio(s)" style="rounded=1;whiteSpace=wrap;html=1;shadow=1;fillColor=#075a82;fontColor=#FFFFFF;" parent="Q6NvDaof21Lmz1zF1uVE-188" vertex="1">
          <mxGeometry x="10.009999999999991" y="305" width="120" height="30" as="geometry" />
        </mxCell>
        <mxCell id="tMFDblHWtB-Guuc8-DbZ-3" style="edgeStyle=orthogonalEdgeStyle;rounded=0;orthogonalLoop=1;jettySize=auto;html=1;exitX=0;exitY=0.5;exitDx=0;exitDy=0;entryX=0;entryY=0.563;entryDx=0;entryDy=0;entryPerimeter=0;" parent="Q6NvDaof21Lmz1zF1uVE-188" source="Q6NvDaof21Lmz1zF1uVE-154" target="Q6NvDaof21Lmz1zF1uVE-153" edge="1">
          <mxGeometry relative="1" as="geometry">
            <Array as="points">
              <mxPoint x="-10" y="220" />
              <mxPoint x="-10" y="252" />
            </Array>
          </mxGeometry>
        </mxCell>
        <mxCell id="Q6NvDaof21Lmz1zF1uVE-154" value="All Issuers" style="rounded=1;whiteSpace=wrap;html=1;shadow=1;fillColor=#075a82;fontColor=#FFFFFF;" parent="Q6NvDaof21Lmz1zF1uVE-188" vertex="1">
          <mxGeometry x="10.009999999999991" y="205" width="120" height="30" as="geometry" />
        </mxCell>
        <mxCell id="Q6NvDaof21Lmz1zF1uVE-155" value="Factor Alerts" style="rounded=1;whiteSpace=wrap;html=1;shadow=1;fillColor=#E6E6E6;" parent="Q6NvDaof21Lmz1zF1uVE-188" vertex="1">
          <mxGeometry x="10.009999999999991" y="50" width="120" height="30" as="geometry" />
        </mxCell>
        <mxCell id="Q6NvDaof21Lmz1zF1uVE-156" value="List of Factors" style="rounded=1;whiteSpace=wrap;html=1;shadow=1;fillColor=#E6E6E6;" parent="Q6NvDaof21Lmz1zF1uVE-188" vertex="1">
          <mxGeometry x="10.009999999999991" y="180" width="120" height="15" as="geometry" />
        </mxCell>
        <mxCell id="Q6NvDaof21Lmz1zF1uVE-157" value="Search" style="rounded=1;whiteSpace=wrap;html=1;shadow=1;fillColor=#E6E6E6;" parent="Q6NvDaof21Lmz1zF1uVE-188" vertex="1">
          <mxGeometry x="10.009999999999991" y="410" width="120" height="15" as="geometry" />
        </mxCell>
        <mxCell id="Q6NvDaof21Lmz1zF1uVE-158" value="Association Alerts" style="rounded=1;whiteSpace=wrap;html=1;shadow=1;fillColor=#E6E6E6;" parent="Q6NvDaof21Lmz1zF1uVE-188" vertex="1">
          <mxGeometry x="10.009999999999991" y="440" width="120" height="40" as="geometry" />
        </mxCell>
        <mxCell id="Q6NvDaof21Lmz1zF1uVE-159" value="Search" style="rounded=1;whiteSpace=wrap;html=1;shadow=1;fillColor=#E6E6E6;" parent="Q6NvDaof21Lmz1zF1uVE-188" vertex="1">
          <mxGeometry x="10.009999999999991" y="705" width="120" height="15" as="geometry" />
        </mxCell>
        <mxCell id="Q6NvDaof21Lmz1zF1uVE-160" value="List of Saved Screens" style="rounded=1;whiteSpace=wrap;html=1;shadow=1;fillColor=#E6E6E6;" parent="Q6NvDaof21Lmz1zF1uVE-188" vertex="1">
          <mxGeometry x="10.009999999999991" y="850" width="120" height="15" as="geometry" />
        </mxCell>
        <mxCell id="tMFDblHWtB-Guuc8-DbZ-9" style="edgeStyle=orthogonalEdgeStyle;rounded=0;orthogonalLoop=1;jettySize=auto;html=1;exitX=0.5;exitY=1;exitDx=0;exitDy=0;entryX=0.5;entryY=0;entryDx=0;entryDy=0;" parent="Q6NvDaof21Lmz1zF1uVE-188" source="Q6NvDaof21Lmz1zF1uVE-161" target="Q6NvDaof21Lmz1zF1uVE-89" edge="1">
          <mxGeometry relative="1" as="geometry" />
        </mxCell>
        <mxCell id="Q6NvDaof21Lmz1zF1uVE-161" value="Screen Alerts" style="rounded=1;whiteSpace=wrap;html=1;shadow=1;fillColor=#E6E6E6;" parent="Q6NvDaof21Lmz1zF1uVE-188" vertex="1">
          <mxGeometry x="10.009999999999991" y="730" width="120" height="30" as="geometry" />
        </mxCell>
        <mxCell id="tMFDblHWtB-Guuc8-DbZ-1" style="edgeStyle=orthogonalEdgeStyle;rounded=0;orthogonalLoop=1;jettySize=auto;html=1;exitX=0.5;exitY=1;exitDx=0;exitDy=0;entryX=0.5;entryY=0;entryDx=0;entryDy=0;" parent="Q6NvDaof21Lmz1zF1uVE-188" source="Q6NvDaof21Lmz1zF1uVE-87" target="Q6NvDaof21Lmz1zF1uVE-156" edge="1">
          <mxGeometry relative="1" as="geometry" />
        </mxCell>
        <mxCell id="tMFDblHWtB-Guuc8-DbZ-2" style="edgeStyle=orthogonalEdgeStyle;rounded=0;orthogonalLoop=1;jettySize=auto;html=1;exitX=0;exitY=0.5;exitDx=0;exitDy=0;entryX=0;entryY=0.5;entryDx=0;entryDy=0;" parent="Q6NvDaof21Lmz1zF1uVE-188" source="Q6NvDaof21Lmz1zF1uVE-87" target="Q6NvDaof21Lmz1zF1uVE-154" edge="1">
          <mxGeometry relative="1" as="geometry" />
        </mxCell>
        <mxCell id="Q6NvDaof21Lmz1zF1uVE-87" value="Select Factor" style="rounded=1;whiteSpace=wrap;html=1;shadow=1;fillColor=#00274f;fontColor=#FFFFFF;" parent="Q6NvDaof21Lmz1zF1uVE-188" vertex="1">
          <mxGeometry x="10.01" y="120" width="120" height="20" as="geometry" />
        </mxCell>
        <mxCell id="tMFDblHWtB-Guuc8-DbZ-4" style="edgeStyle=orthogonalEdgeStyle;rounded=0;orthogonalLoop=1;jettySize=auto;html=1;exitX=0.5;exitY=1;exitDx=0;exitDy=0;entryX=0.5;entryY=0;entryDx=0;entryDy=0;" parent="Q6NvDaof21Lmz1zF1uVE-188" source="Q6NvDaof21Lmz1zF1uVE-153" target="Q6NvDaof21Lmz1zF1uVE-152" edge="1">
          <mxGeometry relative="1" as="geometry" />
        </mxCell>
        <mxCell id="Q6NvDaof21Lmz1zF1uVE-153" value="Custom Universe" style="rounded=1;whiteSpace=wrap;html=1;shadow=1;fillColor=#075a82;fontColor=#FFFFFF;" parent="Q6NvDaof21Lmz1zF1uVE-188" vertex="1">
          <mxGeometry x="10.009999999999991" y="235" width="120" height="30" as="geometry" />
        </mxCell>
        <mxCell id="Q6NvDaof21Lmz1zF1uVE-151" value="Add Watchlist(s)" style="rounded=1;whiteSpace=wrap;html=1;shadow=1;fillColor=#075a82;fontColor=#FFFFFF;" parent="Q6NvDaof21Lmz1zF1uVE-188" vertex="1">
          <mxGeometry x="10.009999999999991" y="335" width="120" height="30" as="geometry" />
        </mxCell>
        <mxCell id="Q6NvDaof21Lmz1zF1uVE-150" value="Add Index(es)" style="rounded=1;whiteSpace=wrap;html=1;shadow=1;fillColor=#075a82;fontColor=#FFFFFF;" parent="Q6NvDaof21Lmz1zF1uVE-188" vertex="1">
          <mxGeometry x="10.009999999999991" y="365" width="120" height="30" as="geometry" />
        </mxCell>
        <mxCell id="Q6NvDaof21Lmz1zF1uVE-148" value="Custom Universe" style="rounded=1;whiteSpace=wrap;html=1;shadow=1;fillColor=#075a82;fontColor=#FFFFFF;" parent="Q6NvDaof21Lmz1zF1uVE-188" vertex="1">
          <mxGeometry x="10.009999999999991" y="570" width="120" height="30" as="geometry" />
        </mxCell>
        <mxCell id="Q6NvDaof21Lmz1zF1uVE-146" value="Add Watchlist(s)" style="rounded=1;whiteSpace=wrap;html=1;shadow=1;fillColor=#075a82;fontColor=#FFFFFF;" parent="Q6NvDaof21Lmz1zF1uVE-188" vertex="1">
          <mxGeometry x="10.009999999999991" y="640" width="120" height="30" as="geometry" />
        </mxCell>
        <mxCell id="tMFDblHWtB-Guuc8-DbZ-8" style="edgeStyle=orthogonalEdgeStyle;rounded=0;orthogonalLoop=1;jettySize=auto;html=1;exitX=0.5;exitY=1;exitDx=0;exitDy=0;entryX=0.5;entryY=0;entryDx=0;entryDy=0;" parent="Q6NvDaof21Lmz1zF1uVE-188" source="Q6NvDaof21Lmz1zF1uVE-145" target="Q6NvDaof21Lmz1zF1uVE-159" edge="1">
          <mxGeometry relative="1" as="geometry" />
        </mxCell>
        <mxCell id="Q6NvDaof21Lmz1zF1uVE-145" value="Add Index(es)" style="rounded=1;whiteSpace=wrap;html=1;shadow=1;fillColor=#075a82;fontColor=#FFFFFF;" parent="Q6NvDaof21Lmz1zF1uVE-188" vertex="1">
          <mxGeometry x="10.009999999999991" y="670" width="120" height="30" as="geometry" />
        </mxCell>
        <mxCell id="Q6NvDaof21Lmz1zF1uVE-142" value="Add Watchlist(s)" style="rounded=1;whiteSpace=wrap;html=1;shadow=1;fillColor=#075a82;fontColor=#FFFFFF;" parent="Q6NvDaof21Lmz1zF1uVE-188" vertex="1">
          <mxGeometry x="10" y="970" width="120" height="30" as="geometry" />
        </mxCell>
        <mxCell id="tMFDblHWtB-Guuc8-DbZ-12" style="edgeStyle=orthogonalEdgeStyle;rounded=0;orthogonalLoop=1;jettySize=auto;html=1;exitX=0.5;exitY=1;exitDx=0;exitDy=0;entryX=0.5;entryY=0;entryDx=0;entryDy=0;" parent="Q6NvDaof21Lmz1zF1uVE-188" source="Q6NvDaof21Lmz1zF1uVE-141" target="Q6NvDaof21Lmz1zF1uVE-90" edge="1">
          <mxGeometry relative="1" as="geometry" />
        </mxCell>
        <mxCell id="Q6NvDaof21Lmz1zF1uVE-141" value="Add Index(es)" style="rounded=1;whiteSpace=wrap;html=1;shadow=1;fillColor=#075a82;fontColor=#FFFFFF;" parent="Q6NvDaof21Lmz1zF1uVE-188" vertex="1">
          <mxGeometry x="10.01" y="1000" width="120" height="30" as="geometry" />
        </mxCell>
        <mxCell id="Q6NvDaof21Lmz1zF1uVE-189" value="" style="group" parent="WIyWlLk6GJQsqaUBKTNV-1" vertex="1" connectable="0">
          <mxGeometry x="990" y="20" width="126.5" height="367.5" as="geometry" />
        </mxCell>
        <mxCell id="Q6NvDaof21Lmz1zF1uVE-8" value="Data Sets" style="rounded=1;whiteSpace=wrap;html=1;fillColor=#c1e4f7;shadow=1;fontStyle=1" parent="Q6NvDaof21Lmz1zF1uVE-189" vertex="1">
          <mxGeometry width="126.5" height="40" as="geometry" />
        </mxCell>
        <mxCell id="tMFDblHWtB-Guuc8-DbZ-14" style="edgeStyle=orthogonalEdgeStyle;rounded=0;orthogonalLoop=1;jettySize=auto;html=1;exitX=0;exitY=0.5;exitDx=0;exitDy=0;entryX=0;entryY=0.5;entryDx=0;entryDy=0;" parent="Q6NvDaof21Lmz1zF1uVE-189" source="Q6NvDaof21Lmz1zF1uVE-85" target="Q6NvDaof21Lmz1zF1uVE-138" edge="1">
          <mxGeometry relative="1" as="geometry">
            <Array as="points">
              <mxPoint x="-10" y="165" />
              <mxPoint x="-10" y="200" />
            </Array>
          </mxGeometry>
        </mxCell>
        <mxCell id="tMFDblHWtB-Guuc8-DbZ-15" style="edgeStyle=orthogonalEdgeStyle;rounded=0;orthogonalLoop=1;jettySize=auto;html=1;exitX=0;exitY=0.5;exitDx=0;exitDy=0;entryX=0;entryY=0.5;entryDx=0;entryDy=0;" parent="Q6NvDaof21Lmz1zF1uVE-189" source="Q6NvDaof21Lmz1zF1uVE-85" target="Q6NvDaof21Lmz1zF1uVE-139" edge="1">
          <mxGeometry relative="1" as="geometry">
            <Array as="points">
              <mxPoint x="-10" y="165" />
              <mxPoint x="-10" y="235" />
            </Array>
          </mxGeometry>
        </mxCell>
        <mxCell id="Q6NvDaof21Lmz1zF1uVE-85" value="Export" style="rounded=1;whiteSpace=wrap;html=1;shadow=1;fillColor=#00274f;fontColor=#FFFFFF;" parent="Q6NvDaof21Lmz1zF1uVE-189" vertex="1">
          <mxGeometry x="3.25" y="150" width="120" height="30" as="geometry" />
        </mxCell>
        <mxCell id="tMFDblHWtB-Guuc8-DbZ-13" style="edgeStyle=orthogonalEdgeStyle;rounded=0;orthogonalLoop=1;jettySize=auto;html=1;exitX=0.5;exitY=1;exitDx=0;exitDy=0;entryX=0.5;entryY=0;entryDx=0;entryDy=0;" parent="Q6NvDaof21Lmz1zF1uVE-189" source="Q6NvDaof21Lmz1zF1uVE-86" target="Q6NvDaof21Lmz1zF1uVE-164" edge="1">
          <mxGeometry relative="1" as="geometry" />
        </mxCell>
        <mxCell id="Q6NvDaof21Lmz1zF1uVE-86" value="Export Factor References" style="rounded=1;whiteSpace=wrap;html=1;shadow=1;fillColor=#00274f;fontColor=#FFFFFF;" parent="Q6NvDaof21Lmz1zF1uVE-189" vertex="1">
          <mxGeometry x="3.25" y="50" width="120" height="30" as="geometry" />
        </mxCell>
        <mxCell id="Q6NvDaof21Lmz1zF1uVE-138" value="All" style="rounded=1;whiteSpace=wrap;html=1;shadow=1;fillColor=#075a82;fontColor=#FFFFFF;" parent="Q6NvDaof21Lmz1zF1uVE-189" vertex="1">
          <mxGeometry x="3.25" y="185" width="120" height="30" as="geometry" />
        </mxCell>
        <mxCell id="tMFDblHWtB-Guuc8-DbZ-16" style="edgeStyle=orthogonalEdgeStyle;rounded=0;orthogonalLoop=1;jettySize=auto;html=1;exitX=0.5;exitY=1;exitDx=0;exitDy=0;entryX=0.5;entryY=0;entryDx=0;entryDy=0;" parent="Q6NvDaof21Lmz1zF1uVE-189" source="Q6NvDaof21Lmz1zF1uVE-139" target="Q6NvDaof21Lmz1zF1uVE-163" edge="1">
          <mxGeometry relative="1" as="geometry" />
        </mxCell>
        <mxCell id="Q6NvDaof21Lmz1zF1uVE-139" value="Current" style="rounded=1;whiteSpace=wrap;html=1;shadow=1;fillColor=#075a82;fontColor=#FFFFFF;" parent="Q6NvDaof21Lmz1zF1uVE-189" vertex="1">
          <mxGeometry x="3.25" y="220" width="120" height="30" as="geometry" />
        </mxCell>
        <mxCell id="tMFDblHWtB-Guuc8-DbZ-17" style="edgeStyle=orthogonalEdgeStyle;rounded=0;orthogonalLoop=1;jettySize=auto;html=1;exitX=0.5;exitY=1;exitDx=0;exitDy=0;entryX=0.484;entryY=0.07;entryDx=0;entryDy=0;entryPerimeter=0;" parent="Q6NvDaof21Lmz1zF1uVE-189" source="Q6NvDaof21Lmz1zF1uVE-140" target="Q6NvDaof21Lmz1zF1uVE-162" edge="1">
          <mxGeometry relative="1" as="geometry" />
        </mxCell>
        <mxCell id="Q6NvDaof21Lmz1zF1uVE-140" value="Issuer (Select data set)" style="rounded=1;whiteSpace=wrap;html=1;shadow=1;fillColor=#075a82;fontColor=#FFFFFF;" parent="Q6NvDaof21Lmz1zF1uVE-189" vertex="1">
          <mxGeometry x="3.25" y="310" width="120" height="30" as="geometry" />
        </mxCell>
        <mxCell id="Q6NvDaof21Lmz1zF1uVE-162" value="List of data sets" style="rounded=1;whiteSpace=wrap;html=1;shadow=1;fillColor=#E6E6E6;" parent="Q6NvDaof21Lmz1zF1uVE-189" vertex="1">
          <mxGeometry x="3.25" y="352.5" width="120" height="15" as="geometry" />
        </mxCell>
        <mxCell id="Q6NvDaof21Lmz1zF1uVE-163" value=".xlsx file" style="rounded=1;whiteSpace=wrap;html=1;shadow=1;fillColor=#E6E6E6;" parent="Q6NvDaof21Lmz1zF1uVE-189" vertex="1">
          <mxGeometry x="3.25" y="265" width="120" height="15" as="geometry" />
        </mxCell>
        <mxCell id="Q6NvDaof21Lmz1zF1uVE-164" value=".csv file" style="rounded=1;whiteSpace=wrap;html=1;shadow=1;fillColor=#E6E6E6;" parent="Q6NvDaof21Lmz1zF1uVE-189" vertex="1">
          <mxGeometry x="3.25" y="87.5" width="120" height="15" as="geometry" />
        </mxCell>
        <mxCell id="Q6NvDaof21Lmz1zF1uVE-190" value="" style="group" parent="WIyWlLk6GJQsqaUBKTNV-1" vertex="1" connectable="0">
          <mxGeometry x="827" y="20" width="132.77" height="1020" as="geometry" />
        </mxCell>
        <mxCell id="Q6NvDaof21Lmz1zF1uVE-7" value="Portfolio Management" style="rounded=1;whiteSpace=wrap;html=1;fillColor=#c1e4f7;shadow=1;fontStyle=1" parent="Q6NvDaof21Lmz1zF1uVE-190" vertex="1">
          <mxGeometry x="0.009999999999990905" width="120" height="40" as="geometry" />
        </mxCell>
        <mxCell id="Q6NvDaof21Lmz1zF1uVE-38" value="Portfolio Name" style="rounded=1;whiteSpace=wrap;html=1;fillColor=#c1e4f7;shadow=1;" parent="Q6NvDaof21Lmz1zF1uVE-190" vertex="1">
          <mxGeometry x="5.129999999999987" y="250" width="109.74" height="20" as="geometry" />
        </mxCell>
        <mxCell id="Q6NvDaof21Lmz1zF1uVE-39" value="Analyze" style="rounded=1;whiteSpace=wrap;html=1;fillColor=#c1e4f7;shadow=1;" parent="Q6NvDaof21Lmz1zF1uVE-190" vertex="1">
          <mxGeometry x="3.2699999999999863" y="330" width="110" height="20" as="geometry" />
        </mxCell>
        <mxCell id="Q6NvDaof21Lmz1zF1uVE-40" value="Edit Portfolio" style="rounded=1;whiteSpace=wrap;html=1;fillColor=#c1e4f7;shadow=1;" parent="Q6NvDaof21Lmz1zF1uVE-190" vertex="1">
          <mxGeometry x="3.2599999999999865" y="350" width="110" height="20" as="geometry" />
        </mxCell>
        <mxCell id="Q6NvDaof21Lmz1zF1uVE-41" value="Delete Portfolio" style="rounded=1;whiteSpace=wrap;html=1;fillColor=#c1e4f7;shadow=1;" parent="Q6NvDaof21Lmz1zF1uVE-190" vertex="1">
          <mxGeometry x="3.529999999999986" y="370" width="109.74" height="20" as="geometry" />
        </mxCell>
        <mxCell id="Q6NvDaof21Lmz1zF1uVE-42" value="Analyze" style="rounded=1;whiteSpace=wrap;html=1;fillColor=#c1e4f7;shadow=1;" parent="Q6NvDaof21Lmz1zF1uVE-190" vertex="1">
          <mxGeometry x="-1.354472090042691e-14" y="530" width="120" height="20" as="geometry" />
        </mxCell>
        <mxCell id="tMFDblHWtB-Guuc8-DbZ-23" style="edgeStyle=orthogonalEdgeStyle;rounded=0;orthogonalLoop=1;jettySize=auto;html=1;exitX=0.5;exitY=1;exitDx=0;exitDy=0;entryX=0.5;entryY=0;entryDx=0;entryDy=0;" parent="Q6NvDaof21Lmz1zF1uVE-190" source="Q6NvDaof21Lmz1zF1uVE-43" target="Q6NvDaof21Lmz1zF1uVE-84" edge="1">
          <mxGeometry relative="1" as="geometry" />
        </mxCell>
        <mxCell id="Q6NvDaof21Lmz1zF1uVE-43" value="Edit Portfolio" style="rounded=1;whiteSpace=wrap;html=1;fillColor=#c1e4f7;shadow=1;" parent="Q6NvDaof21Lmz1zF1uVE-190" vertex="1">
          <mxGeometry x="0.009999999999986464" y="550" width="120" height="20" as="geometry" />
        </mxCell>
        <mxCell id="Q6NvDaof21Lmz1zF1uVE-53" value="Watchlists" style="rounded=1;whiteSpace=wrap;html=1;shadow=1;fillColor=#3a8db5;" parent="Q6NvDaof21Lmz1zF1uVE-190" vertex="1">
          <mxGeometry x="-1.7399999999999993" y="730" width="120" height="20" as="geometry" />
        </mxCell>
        <mxCell id="Q6NvDaof21Lmz1zF1uVE-54" value="Securities" style="rounded=1;whiteSpace=wrap;html=1;shadow=1;fillColor=#3a8db5;" parent="Q6NvDaof21Lmz1zF1uVE-190" vertex="1">
          <mxGeometry x="-1.7399999999999998" y="500" width="120" height="20" as="geometry" />
        </mxCell>
        <mxCell id="tMFDblHWtB-Guuc8-DbZ-24" style="edgeStyle=orthogonalEdgeStyle;rounded=0;orthogonalLoop=1;jettySize=auto;html=1;exitX=1;exitY=0.5;exitDx=0;exitDy=0;entryX=1;entryY=0.5;entryDx=0;entryDy=0;" parent="Q6NvDaof21Lmz1zF1uVE-190" source="Q6NvDaof21Lmz1zF1uVE-55" target="Q6NvDaof21Lmz1zF1uVE-54" edge="1">
          <mxGeometry relative="1" as="geometry" />
        </mxCell>
        <mxCell id="Q6NvDaof21Lmz1zF1uVE-55" value="Overview" style="rounded=1;whiteSpace=wrap;html=1;shadow=1;fillColor=#3a8db5;" parent="Q6NvDaof21Lmz1zF1uVE-190" vertex="1">
          <mxGeometry x="-1.74" y="290" width="120" height="20" as="geometry" />
        </mxCell>
        <mxCell id="Q6NvDaof21Lmz1zF1uVE-82" value="Analyze" style="rounded=1;whiteSpace=wrap;html=1;shadow=1;fillColor=#00274f;fontColor=#FFFFFF;" parent="Q6NvDaof21Lmz1zF1uVE-190" vertex="1">
          <mxGeometry x="-1.7400000000000002" y="670" width="120" height="20" as="geometry" />
        </mxCell>
        <mxCell id="Q6NvDaof21Lmz1zF1uVE-84" value="Delete Portfolio" style="rounded=1;whiteSpace=wrap;html=1;shadow=1;fillColor=#00274f;fontColor=#FFFFFF;" parent="Q6NvDaof21Lmz1zF1uVE-190" vertex="1">
          <mxGeometry x="0.009999999999999787" y="590" width="120" height="20" as="geometry" />
        </mxCell>
        <mxCell id="Q6NvDaof21Lmz1zF1uVE-132" value="Upload" style="rounded=1;whiteSpace=wrap;html=1;shadow=1;fillColor=#075a82;fontColor=#FFFFFF;" parent="Q6NvDaof21Lmz1zF1uVE-190" vertex="1">
          <mxGeometry x="0.010000000000000009" y="50" width="120" height="20" as="geometry" />
        </mxCell>
        <mxCell id="tMFDblHWtB-Guuc8-DbZ-18" style="edgeStyle=orthogonalEdgeStyle;rounded=0;orthogonalLoop=1;jettySize=auto;html=1;exitX=0.5;exitY=1;exitDx=0;exitDy=0;entryX=0.5;entryY=0;entryDx=0;entryDy=0;" parent="Q6NvDaof21Lmz1zF1uVE-190" source="Q6NvDaof21Lmz1zF1uVE-133" target="Q6NvDaof21Lmz1zF1uVE-134" edge="1">
          <mxGeometry relative="1" as="geometry" />
        </mxCell>
        <mxCell id="Q6NvDaof21Lmz1zF1uVE-133" value="Create New" style="rounded=1;whiteSpace=wrap;html=1;shadow=1;fillColor=#075a82;fontColor=#FFFFFF;" parent="Q6NvDaof21Lmz1zF1uVE-190" vertex="1">
          <mxGeometry y="70" width="120" height="20" as="geometry" />
        </mxCell>
        <mxCell id="Q6NvDaof21Lmz1zF1uVE-134" value="Portfolio" style="rounded=1;whiteSpace=wrap;html=1;shadow=1;fillColor=#075a82;fontColor=#FFFFFF;" parent="Q6NvDaof21Lmz1zF1uVE-190" vertex="1">
          <mxGeometry y="100" width="120" height="15" as="geometry" />
        </mxCell>
        <mxCell id="Q6NvDaof21Lmz1zF1uVE-135" value="Watchlist" style="rounded=1;whiteSpace=wrap;html=1;shadow=1;fillColor=#075a82;fontColor=#FFFFFF;" parent="Q6NvDaof21Lmz1zF1uVE-190" vertex="1">
          <mxGeometry x="8.673617379884035e-18" y="115" width="120" height="15" as="geometry" />
        </mxCell>
        <mxCell id="Q6NvDaof21Lmz1zF1uVE-137" value="Equity/Fixed Income/Mixed Filter" style="rounded=1;whiteSpace=wrap;html=1;shadow=1;fillColor=#075a82;fontColor=#FFFFFF;" parent="Q6NvDaof21Lmz1zF1uVE-190" vertex="1">
          <mxGeometry x="0.009999999999986353" y="200" width="120" height="30" as="geometry" />
        </mxCell>
        <mxCell id="Q6NvDaof21Lmz1zF1uVE-165" value="Portfolios" style="rounded=1;whiteSpace=wrap;html=1;shadow=1;fillColor=#3a8db5;" parent="Q6NvDaof21Lmz1zF1uVE-190" vertex="1">
          <mxGeometry x="1.64" y="160" width="113.25" height="15" as="geometry" />
        </mxCell>
        <mxCell id="Q6NvDaof21Lmz1zF1uVE-166" value="Delete" style="rounded=1;whiteSpace=wrap;html=1;shadow=1;fillColor=#E6E6E6;" parent="Q6NvDaof21Lmz1zF1uVE-190" vertex="1">
          <mxGeometry x="-1.7400000000000002" y="700" width="120" height="20" as="geometry" />
        </mxCell>
        <mxCell id="Q6NvDaof21Lmz1zF1uVE-167" value=".csv file" style="rounded=1;whiteSpace=wrap;html=1;shadow=1;fillColor=#E6E6E6;" parent="Q6NvDaof21Lmz1zF1uVE-190" vertex="1">
          <mxGeometry x="-1.600000000000009" y="640" width="120" height="20" as="geometry" />
        </mxCell>
        <mxCell id="Q6NvDaof21Lmz1zF1uVE-168" value="Export" style="rounded=1;whiteSpace=wrap;html=1;shadow=1;fillColor=#E6E6E6;" parent="Q6NvDaof21Lmz1zF1uVE-190" vertex="1">
          <mxGeometry x="1.64" y="410" width="120" height="20" as="geometry" />
        </mxCell>
        <mxCell id="Q6NvDaof21Lmz1zF1uVE-169" value=".csv file" style="rounded=1;whiteSpace=wrap;html=1;shadow=1;fillColor=#E6E6E6;" parent="Q6NvDaof21Lmz1zF1uVE-190" vertex="1">
          <mxGeometry x="0.009999999999990905" y="440" width="120" height="20" as="geometry" />
        </mxCell>
        <mxCell id="Q6NvDaof21Lmz1zF1uVE-170" value="Analyze" style="rounded=1;whiteSpace=wrap;html=1;shadow=1;fillColor=#E6E6E6;" parent="Q6NvDaof21Lmz1zF1uVE-190" vertex="1">
          <mxGeometry x="0.009999999999990905" y="460" width="120" height="20" as="geometry" />
        </mxCell>
        <mxCell id="tMFDblHWtB-Guuc8-DbZ-19" style="edgeStyle=orthogonalEdgeStyle;rounded=0;orthogonalLoop=1;jettySize=auto;html=1;exitX=0.5;exitY=1;exitDx=0;exitDy=0;entryX=0.5;entryY=0;entryDx=0;entryDy=0;" parent="Q6NvDaof21Lmz1zF1uVE-190" source="Q6NvDaof21Lmz1zF1uVE-136" target="Q6NvDaof21Lmz1zF1uVE-137" edge="1">
          <mxGeometry relative="1" as="geometry" />
        </mxCell>
        <mxCell id="Q6NvDaof21Lmz1zF1uVE-136" value="Asset Class" style="rounded=1;whiteSpace=wrap;html=1;shadow=1;fillColor=#075a82;fontColor=#FFFFFF;" parent="Q6NvDaof21Lmz1zF1uVE-190" vertex="1">
          <mxGeometry x="0.01" y="175" width="120" height="15" as="geometry" />
        </mxCell>
        <mxCell id="tMFDblHWtB-Guuc8-DbZ-22" style="edgeStyle=orthogonalEdgeStyle;rounded=0;orthogonalLoop=1;jettySize=auto;html=1;exitX=0.5;exitY=1;exitDx=0;exitDy=0;entryX=0.5;entryY=0;entryDx=0;entryDy=0;" parent="Q6NvDaof21Lmz1zF1uVE-190" source="Q6NvDaof21Lmz1zF1uVE-83" target="Q6NvDaof21Lmz1zF1uVE-167" edge="1">
          <mxGeometry relative="1" as="geometry" />
        </mxCell>
        <mxCell id="Q6NvDaof21Lmz1zF1uVE-83" value="Export" style="rounded=1;whiteSpace=wrap;html=1;shadow=1;fillColor=#00274f;fontColor=#FFFFFF;" parent="Q6NvDaof21Lmz1zF1uVE-190" vertex="1">
          <mxGeometry y="610" width="120" height="20" as="geometry" />
        </mxCell>
        <mxCell id="Q6NvDaof21Lmz1zF1uVE-192" value="" style="group;fontSize=10;" parent="WIyWlLk6GJQsqaUBKTNV-1" vertex="1" connectable="0">
          <mxGeometry x="670" y="20" width="122.38" height="610" as="geometry" />
        </mxCell>
        <mxCell id="Q6NvDaof21Lmz1zF1uVE-264" style="edgeStyle=orthogonalEdgeStyle;rounded=0;orthogonalLoop=1;jettySize=auto;html=1;exitX=0.5;exitY=1;exitDx=0;exitDy=0;entryX=0.5;entryY=0;entryDx=0;entryDy=0;fontSize=10;fontColor=#FFFFFF;" parent="Q6NvDaof21Lmz1zF1uVE-192" source="Q6NvDaof21Lmz1zF1uVE-6" target="Q6NvDaof21Lmz1zF1uVE-36" edge="1">
          <mxGeometry relative="1" as="geometry" />
        </mxCell>
        <mxCell id="Q6NvDaof21Lmz1zF1uVE-6" value="Explorer" style="rounded=1;whiteSpace=wrap;html=1;fillColor=#c1e4f7;shadow=1;fontStyle=1" parent="Q6NvDaof21Lmz1zF1uVE-192" vertex="1">
          <mxGeometry x="1.5" width="110" height="40" as="geometry" />
        </mxCell>
        <mxCell id="Q6NvDaof21Lmz1zF1uVE-265" style="edgeStyle=orthogonalEdgeStyle;rounded=0;orthogonalLoop=1;jettySize=auto;html=1;exitX=0.5;exitY=1;exitDx=0;exitDy=0;entryX=0.5;entryY=0;entryDx=0;entryDy=0;fontSize=10;fontColor=#FFFFFF;" parent="Q6NvDaof21Lmz1zF1uVE-192" source="Q6NvDaof21Lmz1zF1uVE-36" target="Q6NvDaof21Lmz1zF1uVE-35" edge="1">
          <mxGeometry relative="1" as="geometry" />
        </mxCell>
        <mxCell id="Q6NvDaof21Lmz1zF1uVE-36" value="Search&lt;br&gt;" style="rounded=1;whiteSpace=wrap;html=1;fillColor=#c1e4f7;shadow=1;" parent="Q6NvDaof21Lmz1zF1uVE-192" vertex="1">
          <mxGeometry x="4.13" y="60" width="108.25" height="20" as="geometry" />
        </mxCell>
        <mxCell id="Q6NvDaof21Lmz1zF1uVE-266" style="edgeStyle=orthogonalEdgeStyle;rounded=0;orthogonalLoop=1;jettySize=auto;html=1;exitX=0.5;exitY=1;exitDx=0;exitDy=0;fontSize=10;fontColor=#FFFFFF;" parent="Q6NvDaof21Lmz1zF1uVE-192" source="Q6NvDaof21Lmz1zF1uVE-37" target="Q6NvDaof21Lmz1zF1uVE-101" edge="1">
          <mxGeometry relative="1" as="geometry">
            <Array as="points">
              <mxPoint x="61" y="230" />
              <mxPoint x="62" y="230" />
            </Array>
          </mxGeometry>
        </mxCell>
        <mxCell id="Q6NvDaof21Lmz1zF1uVE-37" value="Download Reports" style="rounded=1;whiteSpace=wrap;html=1;fillColor=#c1e4f7;shadow=1;" parent="Q6NvDaof21Lmz1zF1uVE-192" vertex="1">
          <mxGeometry x="6.319999999999985" y="170" width="109.74" height="20" as="geometry" />
        </mxCell>
        <mxCell id="Q6NvDaof21Lmz1zF1uVE-35" value="Issuer Profile" style="rounded=1;whiteSpace=wrap;html=1;fillColor=#c1e4f7;shadow=1;" parent="Q6NvDaof21Lmz1zF1uVE-192" vertex="1">
          <mxGeometry x="1.5" y="100" width="116.5" height="20" as="geometry" />
        </mxCell>
        <mxCell id="Q6NvDaof21Lmz1zF1uVE-34" value="People" style="rounded=1;whiteSpace=wrap;html=1;fillColor=#c1e4f7;shadow=1;" parent="Q6NvDaof21Lmz1zF1uVE-192" vertex="1">
          <mxGeometry x="1.509999999999991" y="120" width="116.5" height="20" as="geometry" />
        </mxCell>
        <mxCell id="Q6NvDaof21Lmz1zF1uVE-33" value="Cases" style="rounded=1;whiteSpace=wrap;html=1;fillColor=#c1e4f7;shadow=1;" parent="Q6NvDaof21Lmz1zF1uVE-192" vertex="1">
          <mxGeometry x="1.509999999999991" y="140" width="116.5" height="20" as="geometry" />
        </mxCell>
        <mxCell id="Q6NvDaof21Lmz1zF1uVE-101" value="ExecComp Profile" style="rounded=1;whiteSpace=wrap;html=1;shadow=1;fillColor=#075a82;fontColor=#FFFFFF;fontSize=10;" parent="Q6NvDaof21Lmz1zF1uVE-192" vertex="1">
          <mxGeometry x="1.1899999999999997" y="210" width="120" height="20" as="geometry" />
        </mxCell>
        <mxCell id="Q6NvDaof21Lmz1zF1uVE-171" value=".pdf file" style="rounded=1;whiteSpace=wrap;html=1;shadow=1;fillColor=#E6E6E6;" parent="Q6NvDaof21Lmz1zF1uVE-192" vertex="1">
          <mxGeometry x="-1.7400000000000047" y="450" width="120" height="20" as="geometry" />
        </mxCell>
        <mxCell id="Q6NvDaof21Lmz1zF1uVE-100" value="Governance QS Profile" style="rounded=1;whiteSpace=wrap;html=1;shadow=1;fillColor=#075a82;fontColor=#FFFFFF;fontSize=10;" parent="Q6NvDaof21Lmz1zF1uVE-192" vertex="1">
          <mxGeometry x="1.19" y="230" width="120" height="20" as="geometry" />
        </mxCell>
        <mxCell id="Q6NvDaof21Lmz1zF1uVE-99" value="Norms Report" style="rounded=1;whiteSpace=wrap;html=1;shadow=1;fillColor=#075a82;fontColor=#FFFFFF;fontSize=10;" parent="Q6NvDaof21Lmz1zF1uVE-192" vertex="1">
          <mxGeometry x="1.19" y="250" width="120" height="20" as="geometry" />
        </mxCell>
        <mxCell id="Q6NvDaof21Lmz1zF1uVE-98" value="ES QS Factor Data Report" style="rounded=1;whiteSpace=wrap;html=1;shadow=1;fillColor=#075a82;fontColor=#FFFFFF;fontSize=10;" parent="Q6NvDaof21Lmz1zF1uVE-192" vertex="1">
          <mxGeometry x="1.1899999999999953" y="270" width="120" height="30" as="geometry" />
        </mxCell>
        <mxCell id="Q6NvDaof21Lmz1zF1uVE-97" value="ES QS Summary Profile" style="rounded=1;whiteSpace=wrap;html=1;shadow=1;fillColor=#075a82;fontColor=#FFFFFF;fontSize=10;" parent="Q6NvDaof21Lmz1zF1uVE-192" vertex="1">
          <mxGeometry x="1.1899999999999997" y="300" width="120" height="20" as="geometry" />
        </mxCell>
        <mxCell id="Q6NvDaof21Lmz1zF1uVE-94" value="Controversial Weapons Report" style="rounded=1;whiteSpace=wrap;html=1;shadow=1;fillColor=#075a82;fontColor=#FFFFFF;fontSize=10;" parent="Q6NvDaof21Lmz1zF1uVE-192" vertex="1">
          <mxGeometry x="1.1899999999999955" y="320" width="120" height="30" as="geometry" />
        </mxCell>
        <mxCell id="Q6NvDaof21Lmz1zF1uVE-267" style="edgeStyle=orthogonalEdgeStyle;rounded=0;orthogonalLoop=1;jettySize=auto;html=1;exitX=0.5;exitY=1;exitDx=0;exitDy=0;entryX=0.5;entryY=0;entryDx=0;entryDy=0;fontSize=10;fontColor=#FFFFFF;" parent="Q6NvDaof21Lmz1zF1uVE-192" source="Q6NvDaof21Lmz1zF1uVE-131" target="Q6NvDaof21Lmz1zF1uVE-171" edge="1">
          <mxGeometry relative="1" as="geometry" />
        </mxCell>
        <mxCell id="Q6NvDaof21Lmz1zF1uVE-95" value="ISS ESG Rating Report - Long Version" style="rounded=1;whiteSpace=wrap;html=1;shadow=1;fillColor=#075a82;fontColor=#FFFFFF;fontSize=10;" parent="Q6NvDaof21Lmz1zF1uVE-192" vertex="1">
          <mxGeometry x="1.1899999999999953" y="350" width="120" height="30" as="geometry" />
        </mxCell>
        <mxCell id="Q6NvDaof21Lmz1zF1uVE-96" value="ISS ESG Rating Report - Short Version" style="rounded=1;whiteSpace=wrap;html=1;shadow=1;fillColor=#075a82;fontColor=#FFFFFF;fontSize=10;" parent="Q6NvDaof21Lmz1zF1uVE-192" vertex="1">
          <mxGeometry x="1.1899999999999955" y="380" width="120" height="30" as="geometry" />
        </mxCell>
        <mxCell id="Q6NvDaof21Lmz1zF1uVE-131" value="SDG Impact Rating Report" style="rounded=1;whiteSpace=wrap;html=1;shadow=1;fillColor=#075a82;fontColor=#FFFFFF;fontSize=10;" parent="Q6NvDaof21Lmz1zF1uVE-192" vertex="1">
          <mxGeometry x="1.1899999999999955" y="410" width="120" height="30" as="geometry" />
        </mxCell>
        <mxCell id="Q6NvDaof21Lmz1zF1uVE-193" value="" style="group" parent="WIyWlLk6GJQsqaUBKTNV-1" vertex="1" connectable="0">
          <mxGeometry x="510" y="20" width="123.5" height="450" as="geometry" />
        </mxCell>
        <mxCell id="Q6NvDaof21Lmz1zF1uVE-5" value="Portfolio Analytics" style="rounded=1;whiteSpace=wrap;html=1;fillColor=#c1e4f7;shadow=1;fontStyle=1" parent="Q6NvDaof21Lmz1zF1uVE-193" vertex="1">
          <mxGeometry width="123.5" height="40" as="geometry" />
        </mxCell>
        <mxCell id="Q6NvDaof21Lmz1zF1uVE-111" value="Analysis" style="rounded=1;whiteSpace=wrap;html=1;shadow=1;fillColor=#075a82;fontColor=#FFFFFF;fontSize=12;" parent="Q6NvDaof21Lmz1zF1uVE-193" vertex="1">
          <mxGeometry x="3.5" y="130" width="120" height="30" as="geometry" />
        </mxCell>
        <mxCell id="Q6NvDaof21Lmz1zF1uVE-112" value="As-of-Date" style="rounded=1;whiteSpace=wrap;html=1;shadow=1;fillColor=#075a82;fontColor=#FFFFFF;" parent="Q6NvDaof21Lmz1zF1uVE-193" vertex="1">
          <mxGeometry x="1.75" y="50" width="120" height="20" as="geometry" />
        </mxCell>
        <mxCell id="Q6NvDaof21Lmz1zF1uVE-28" value="Portfolio" style="rounded=1;whiteSpace=wrap;html=1;fillColor=#c1e4f7;shadow=1;" parent="Q6NvDaof21Lmz1zF1uVE-193" vertex="1">
          <mxGeometry x="3.5" y="70" width="116.5" height="20" as="geometry" />
        </mxCell>
        <mxCell id="Q6NvDaof21Lmz1zF1uVE-110" value="Climate Report - Equity" style="rounded=1;whiteSpace=wrap;html=1;shadow=1;fillColor=#075a82;fontColor=#FFFFFF;fontSize=10;" parent="Q6NvDaof21Lmz1zF1uVE-193" vertex="1">
          <mxGeometry x="1.75" y="180" width="120" height="30" as="geometry" />
        </mxCell>
        <mxCell id="Q6NvDaof21Lmz1zF1uVE-109" value="Climate Report - Fixed Income or Mixed" style="rounded=1;whiteSpace=wrap;html=1;shadow=1;fillColor=#075a82;fontColor=#FFFFFF;fontSize=11;" parent="Q6NvDaof21Lmz1zF1uVE-193" vertex="1">
          <mxGeometry x="1.75" y="210" width="120" height="30" as="geometry" />
        </mxCell>
        <mxCell id="Q6NvDaof21Lmz1zF1uVE-108" value="Carbon Footprint Report - Equity" style="rounded=1;whiteSpace=wrap;html=1;shadow=1;fillColor=#075a82;fontColor=#FFFFFF;fontSize=10;" parent="Q6NvDaof21Lmz1zF1uVE-193" vertex="1">
          <mxGeometry x="1.75" y="240" width="120" height="30" as="geometry" />
        </mxCell>
        <mxCell id="Q6NvDaof21Lmz1zF1uVE-107" value="Carbon Footprint Report - Fixed Income or Mixed" style="rounded=1;whiteSpace=wrap;html=1;shadow=1;fillColor=#075a82;fontColor=#FFFFFF;fontSize=10;" parent="Q6NvDaof21Lmz1zF1uVE-193" vertex="1">
          <mxGeometry x="1.75" y="270" width="120" height="30" as="geometry" />
        </mxCell>
        <mxCell id="Q6NvDaof21Lmz1zF1uVE-106" value="ESG Portfolio Report" style="rounded=1;whiteSpace=wrap;html=1;shadow=1;fillColor=#075a82;fontColor=#FFFFFF;fontSize=11;" parent="Q6NvDaof21Lmz1zF1uVE-193" vertex="1">
          <mxGeometry x="1.75" y="300" width="120" height="30" as="geometry" />
        </mxCell>
        <mxCell id="Q6NvDaof21Lmz1zF1uVE-105" value="NBR Portfolio Report" style="rounded=1;whiteSpace=wrap;html=1;shadow=1;fillColor=#075a82;fontColor=#FFFFFF;fontSize=10;" parent="Q6NvDaof21Lmz1zF1uVE-193" vertex="1">
          <mxGeometry x="1.75" y="330" width="120" height="30" as="geometry" />
        </mxCell>
        <mxCell id="Q6NvDaof21Lmz1zF1uVE-104" value="SDG Impact Rating Report" style="rounded=1;whiteSpace=wrap;html=1;shadow=1;fillColor=#075a82;fontColor=#FFFFFF;fontSize=10;" parent="Q6NvDaof21Lmz1zF1uVE-193" vertex="1">
          <mxGeometry x="1.75" y="360" width="120" height="30" as="geometry" />
        </mxCell>
        <mxCell id="Q6NvDaof21Lmz1zF1uVE-103" value="SDG Solutions Assessment Report" style="rounded=1;whiteSpace=wrap;html=1;shadow=1;fillColor=#075a82;fontColor=#FFFFFF;fontSize=10;" parent="Q6NvDaof21Lmz1zF1uVE-193" vertex="1">
          <mxGeometry x="1.75" y="390" width="120" height="30" as="geometry" />
        </mxCell>
        <mxCell id="Q6NvDaof21Lmz1zF1uVE-102" value="SDG Impact and Solutions Report" style="rounded=1;whiteSpace=wrap;html=1;shadow=1;fillColor=#075a82;fontColor=#FFFFFF;fontSize=10;" parent="Q6NvDaof21Lmz1zF1uVE-193" vertex="1">
          <mxGeometry x="1.75" y="420" width="120" height="30" as="geometry" />
        </mxCell>
        <mxCell id="Q6NvDaof21Lmz1zF1uVE-194" value="" style="group" parent="WIyWlLk6GJQsqaUBKTNV-1" vertex="1" connectable="0">
          <mxGeometry x="350" y="20" width="120" height="990" as="geometry" />
        </mxCell>
        <mxCell id="Q6NvDaof21Lmz1zF1uVE-48" value="ISS Models" style="rounded=1;whiteSpace=wrap;html=1;shadow=1;fillColor=#3a8db5;" parent="Q6NvDaof21Lmz1zF1uVE-194" vertex="1">
          <mxGeometry y="130" width="120" height="20" as="geometry" />
        </mxCell>
        <mxCell id="Q6NvDaof21Lmz1zF1uVE-263" style="edgeStyle=orthogonalEdgeStyle;rounded=0;orthogonalLoop=1;jettySize=auto;html=1;exitX=0.5;exitY=1;exitDx=0;exitDy=0;entryX=0.5;entryY=0;entryDx=0;entryDy=0;fontSize=10;fontColor=#FFFFFF;" parent="Q6NvDaof21Lmz1zF1uVE-194" source="Q6NvDaof21Lmz1zF1uVE-4" target="Q6NvDaof21Lmz1zF1uVE-262" edge="1">
          <mxGeometry relative="1" as="geometry" />
        </mxCell>
        <mxCell id="Q6NvDaof21Lmz1zF1uVE-4" value="Custom Ratings" style="rounded=1;whiteSpace=wrap;html=1;fillColor=#c1e4f7;shadow=1;fontStyle=1" parent="Q6NvDaof21Lmz1zF1uVE-194" vertex="1">
          <mxGeometry width="120" height="40" as="geometry" />
        </mxCell>
        <mxCell id="Q6NvDaof21Lmz1zF1uVE-16" value="Board Quality" style="rounded=1;whiteSpace=wrap;html=1;fillColor=#c1e4f7;shadow=1;" parent="Q6NvDaof21Lmz1zF1uVE-194" vertex="1">
          <mxGeometry y="170" width="120" height="20" as="geometry" />
        </mxCell>
        <mxCell id="Q6NvDaof21Lmz1zF1uVE-17" value="Compensation Pr" style="rounded=1;whiteSpace=wrap;html=1;fillColor=#c1e4f7;shadow=1;" parent="Q6NvDaof21Lmz1zF1uVE-194" vertex="1">
          <mxGeometry y="190" width="120" height="20" as="geometry" />
        </mxCell>
        <mxCell id="Q6NvDaof21Lmz1zF1uVE-20" value="1.0" style="rounded=1;whiteSpace=wrap;html=1;fillColor=#c1e4f7;shadow=1;" parent="Q6NvDaof21Lmz1zF1uVE-194" vertex="1">
          <mxGeometry y="400" width="120" height="20" as="geometry" />
        </mxCell>
        <mxCell id="Q6NvDaof21Lmz1zF1uVE-27" value="Diversity" style="rounded=1;whiteSpace=wrap;html=1;fillColor=#c1e4f7;shadow=1;" parent="Q6NvDaof21Lmz1zF1uVE-194" vertex="1">
          <mxGeometry y="210" width="120" height="20" as="geometry" />
        </mxCell>
        <mxCell id="Q6NvDaof21Lmz1zF1uVE-26" value="E&amp;amp;S QS Scores" style="rounded=1;whiteSpace=wrap;html=1;fillColor=#c1e4f7;shadow=1;" parent="Q6NvDaof21Lmz1zF1uVE-194" vertex="1">
          <mxGeometry y="230" width="120" height="20" as="geometry" />
        </mxCell>
        <mxCell id="Q6NvDaof21Lmz1zF1uVE-18" value="ESRATINGCROSS" style="rounded=1;whiteSpace=wrap;html=1;fillColor=#c1e4f7;shadow=1;" parent="Q6NvDaof21Lmz1zF1uVE-194" vertex="1">
          <mxGeometry y="250" width="120" height="20" as="geometry" />
        </mxCell>
        <mxCell id="Q6NvDaof21Lmz1zF1uVE-25" value="GHG Footprint" style="rounded=1;whiteSpace=wrap;html=1;fillColor=#c1e4f7;shadow=1;" parent="Q6NvDaof21Lmz1zF1uVE-194" vertex="1">
          <mxGeometry y="270" width="120" height="20" as="geometry" />
        </mxCell>
        <mxCell id="Q6NvDaof21Lmz1zF1uVE-24" value="ISSGovModel" style="rounded=1;whiteSpace=wrap;html=1;fillColor=#c1e4f7;shadow=1;" parent="Q6NvDaof21Lmz1zF1uVE-194" vertex="1">
          <mxGeometry y="290" width="120" height="20" as="geometry" />
        </mxCell>
        <mxCell id="Q6NvDaof21Lmz1zF1uVE-23" value="Pandemic-Corporate" style="rounded=1;whiteSpace=wrap;html=1;fillColor=#c1e4f7;shadow=1;" parent="Q6NvDaof21Lmz1zF1uVE-194" vertex="1">
          <mxGeometry y="310" width="120" height="20" as="geometry" />
        </mxCell>
        <mxCell id="Q6NvDaof21Lmz1zF1uVE-22" value="Pandemic-Country" style="rounded=1;whiteSpace=wrap;html=1;fillColor=#c1e4f7;shadow=1;" parent="Q6NvDaof21Lmz1zF1uVE-194" vertex="1">
          <mxGeometry y="330" width="120" height="20" as="geometry" />
        </mxCell>
        <mxCell id="w-_JFtuls0eAX1BSivLM-0" style="edgeStyle=orthogonalEdgeStyle;rounded=0;orthogonalLoop=1;jettySize=auto;html=1;exitX=0.5;exitY=1;exitDx=0;exitDy=0;entryX=0.5;entryY=0;entryDx=0;entryDy=0;" edge="1" parent="Q6NvDaof21Lmz1zF1uVE-194" source="Q6NvDaof21Lmz1zF1uVE-21" target="Q6NvDaof21Lmz1zF1uVE-20">
          <mxGeometry relative="1" as="geometry" />
        </mxCell>
        <mxCell id="Q6NvDaof21Lmz1zF1uVE-21" value="SH Rights" style="rounded=1;whiteSpace=wrap;html=1;fillColor=#c1e4f7;shadow=1;" parent="Q6NvDaof21Lmz1zF1uVE-194" vertex="1">
          <mxGeometry y="350" width="120" height="20" as="geometry" />
        </mxCell>
        <mxCell id="Q6NvDaof21Lmz1zF1uVE-19" value="Analyze" style="rounded=1;whiteSpace=wrap;html=1;fillColor=#c1e4f7;shadow=1;" parent="Q6NvDaof21Lmz1zF1uVE-194" vertex="1">
          <mxGeometry y="420" width="120" height="20" as="geometry" />
        </mxCell>
        <mxCell id="Q6NvDaof21Lmz1zF1uVE-49" value="My Models" style="rounded=1;whiteSpace=wrap;html=1;shadow=1;fillColor=#3a8db5;" parent="Q6NvDaof21Lmz1zF1uVE-194" vertex="1">
          <mxGeometry y="100" width="120" height="20" as="geometry" />
        </mxCell>
        <mxCell id="Q6NvDaof21Lmz1zF1uVE-71" value="Save to My Models" style="rounded=1;whiteSpace=wrap;html=1;shadow=1;fillColor=#00274f;fontColor=#FFFFFF;" parent="Q6NvDaof21Lmz1zF1uVE-194" vertex="1">
          <mxGeometry y="900" width="120" height="30" as="geometry" />
        </mxCell>
        <mxCell id="Q6NvDaof21Lmz1zF1uVE-75" value="Analyze Model" style="rounded=1;whiteSpace=wrap;html=1;shadow=1;fillColor=#00274f;fontColor=#FFFFFF;" parent="Q6NvDaof21Lmz1zF1uVE-194" vertex="1">
          <mxGeometry y="740" width="120" height="30" as="geometry" />
        </mxCell>
        <mxCell id="w-_JFtuls0eAX1BSivLM-2" style="edgeStyle=orthogonalEdgeStyle;rounded=0;orthogonalLoop=1;jettySize=auto;html=1;exitX=0.5;exitY=1;exitDx=0;exitDy=0;entryX=0.5;entryY=0;entryDx=0;entryDy=0;" edge="1" parent="Q6NvDaof21Lmz1zF1uVE-194" source="Q6NvDaof21Lmz1zF1uVE-76" target="Q6NvDaof21Lmz1zF1uVE-75">
          <mxGeometry relative="1" as="geometry" />
        </mxCell>
        <mxCell id="Q6NvDaof21Lmz1zF1uVE-76" value="View Profiles" style="rounded=1;whiteSpace=wrap;html=1;shadow=1;fillColor=#00274f;fontColor=#FFFFFF;" parent="Q6NvDaof21Lmz1zF1uVE-194" vertex="1">
          <mxGeometry y="650" width="120" height="30" as="geometry" />
        </mxCell>
        <mxCell id="Q6NvDaof21Lmz1zF1uVE-78" value="Upload" style="rounded=1;whiteSpace=wrap;html=1;shadow=1;fillColor=#00274f;fontColor=#FFFFFF;" parent="Q6NvDaof21Lmz1zF1uVE-194" vertex="1">
          <mxGeometry y="540" width="120" height="30" as="geometry" />
        </mxCell>
        <mxCell id="w-_JFtuls0eAX1BSivLM-1" style="edgeStyle=orthogonalEdgeStyle;rounded=0;orthogonalLoop=1;jettySize=auto;html=1;exitX=0.5;exitY=1;exitDx=0;exitDy=0;entryX=0.5;entryY=0;entryDx=0;entryDy=0;" edge="1" parent="Q6NvDaof21Lmz1zF1uVE-194" source="Q6NvDaof21Lmz1zF1uVE-79" target="Q6NvDaof21Lmz1zF1uVE-176">
          <mxGeometry relative="1" as="geometry" />
        </mxCell>
        <mxCell id="Q6NvDaof21Lmz1zF1uVE-79" value="Download Datapoints" style="rounded=1;whiteSpace=wrap;html=1;shadow=1;fillColor=#00274f;fontColor=#FFFFFF;" parent="Q6NvDaof21Lmz1zF1uVE-194" vertex="1">
          <mxGeometry y="470" width="120" height="30" as="geometry" />
        </mxCell>
        <mxCell id="Q6NvDaof21Lmz1zF1uVE-175" value=".json file" style="rounded=1;whiteSpace=wrap;html=1;shadow=1;fillColor=#E6E6E6;" parent="Q6NvDaof21Lmz1zF1uVE-194" vertex="1">
          <mxGeometry y="625" width="120" height="20" as="geometry" />
        </mxCell>
        <mxCell id="Q6NvDaof21Lmz1zF1uVE-176" value=".csv file" style="rounded=1;whiteSpace=wrap;html=1;shadow=1;fillColor=#E6E6E6;" parent="Q6NvDaof21Lmz1zF1uVE-194" vertex="1">
          <mxGeometry y="515" width="120" height="20" as="geometry" />
        </mxCell>
        <mxCell id="Q6NvDaof21Lmz1zF1uVE-77" value="Download" style="rounded=1;whiteSpace=wrap;html=1;shadow=1;fillColor=#00274f;fontColor=#FFFFFF;" parent="Q6NvDaof21Lmz1zF1uVE-194" vertex="1">
          <mxGeometry y="570" width="120" height="30" as="geometry" />
        </mxCell>
        <mxCell id="Q6NvDaof21Lmz1zF1uVE-74" value="View Model" style="rounded=1;whiteSpace=wrap;html=1;shadow=1;fillColor=#00274f;fontColor=#FFFFFF;" parent="Q6NvDaof21Lmz1zF1uVE-194" vertex="1">
          <mxGeometry y="770" width="120" height="30" as="geometry" />
        </mxCell>
        <mxCell id="Q6NvDaof21Lmz1zF1uVE-73" value="View Profiles" style="rounded=1;whiteSpace=wrap;html=1;shadow=1;fillColor=#00274f;fontColor=#FFFFFF;" parent="Q6NvDaof21Lmz1zF1uVE-194" vertex="1">
          <mxGeometry y="800" width="120" height="30" as="geometry" />
        </mxCell>
        <mxCell id="Q6NvDaof21Lmz1zF1uVE-72" value="Download Rating Model Report" style="rounded=1;whiteSpace=wrap;html=1;shadow=1;fillColor=#00274f;fontColor=#FFFFFF;" parent="Q6NvDaof21Lmz1zF1uVE-194" vertex="1">
          <mxGeometry y="830" width="120" height="30" as="geometry" />
        </mxCell>
        <mxCell id="Q6NvDaof21Lmz1zF1uVE-70" value="View Model" style="rounded=1;whiteSpace=wrap;html=1;shadow=1;fillColor=#00274f;fontColor=#FFFFFF;" parent="Q6NvDaof21Lmz1zF1uVE-194" vertex="1">
          <mxGeometry y="930" width="120" height="30" as="geometry" />
        </mxCell>
        <mxCell id="Q6NvDaof21Lmz1zF1uVE-69" value="Analyze" style="rounded=1;whiteSpace=wrap;html=1;shadow=1;fillColor=#00274f;fontColor=#FFFFFF;" parent="Q6NvDaof21Lmz1zF1uVE-194" vertex="1">
          <mxGeometry y="960" width="120" height="30" as="geometry" />
        </mxCell>
        <mxCell id="Q6NvDaof21Lmz1zF1uVE-262" value="Create New Model" style="rounded=1;whiteSpace=wrap;html=1;shadow=1;fillColor=#00274f;fontColor=#FFFFFF;" parent="Q6NvDaof21Lmz1zF1uVE-194" vertex="1">
          <mxGeometry y="50" width="120" height="30" as="geometry" />
        </mxCell>
        <mxCell id="Q6NvDaof21Lmz1zF1uVE-195" value="" style="group" parent="WIyWlLk6GJQsqaUBKTNV-1" vertex="1" connectable="0">
          <mxGeometry x="190" y="20" width="120" height="1065" as="geometry" />
        </mxCell>
        <mxCell id="Q6NvDaof21Lmz1zF1uVE-213" style="edgeStyle=orthogonalEdgeStyle;rounded=0;orthogonalLoop=1;jettySize=auto;html=1;exitX=0.5;exitY=1;exitDx=0;exitDy=0;entryX=0.5;entryY=0;entryDx=0;entryDy=0;fontSize=10;fontColor=#FFFFFF;" parent="Q6NvDaof21Lmz1zF1uVE-195" source="Q6NvDaof21Lmz1zF1uVE-10" target="Q6NvDaof21Lmz1zF1uVE-119" edge="1">
          <mxGeometry relative="1" as="geometry" />
        </mxCell>
        <mxCell id="Q6NvDaof21Lmz1zF1uVE-10" value="Screener" style="rounded=1;whiteSpace=wrap;html=1;shadow=1;fillColor=#E6E6E6;fontStyle=1" parent="Q6NvDaof21Lmz1zF1uVE-195" vertex="1">
          <mxGeometry width="120" height="40" as="geometry" />
        </mxCell>
        <mxCell id="Q6NvDaof21Lmz1zF1uVE-50" value="Cases" style="rounded=1;whiteSpace=wrap;html=1;shadow=1;fillColor=#3a8db5;" parent="Q6NvDaof21Lmz1zF1uVE-195" vertex="1">
          <mxGeometry y="890" width="120" height="30" as="geometry" />
        </mxCell>
        <mxCell id="Q6NvDaof21Lmz1zF1uVE-51" value="People by Issuers" style="rounded=1;whiteSpace=wrap;html=1;shadow=1;fillColor=#3a8db5;" parent="Q6NvDaof21Lmz1zF1uVE-195" vertex="1">
          <mxGeometry y="780" width="120" height="30" as="geometry" />
        </mxCell>
        <mxCell id="Q6NvDaof21Lmz1zF1uVE-60" value="Save as Watchlist" style="rounded=1;whiteSpace=wrap;html=1;shadow=1;fillColor=#00274f;fontColor=#FFFFFF;" parent="Q6NvDaof21Lmz1zF1uVE-195" vertex="1">
          <mxGeometry y="650" width="120" height="20" as="geometry" />
        </mxCell>
        <mxCell id="Q6NvDaof21Lmz1zF1uVE-61" value="Columns" style="rounded=1;whiteSpace=wrap;html=1;shadow=1;fillColor=#00274f;fontColor=#FFFFFF;" parent="Q6NvDaof21Lmz1zF1uVE-195" vertex="1">
          <mxGeometry y="750" width="120" height="20" as="geometry" />
        </mxCell>
        <mxCell id="Q6NvDaof21Lmz1zF1uVE-62" value="Columns" style="rounded=1;whiteSpace=wrap;html=1;shadow=1;fillColor=#00274f;fontColor=#FFFFFF;" parent="Q6NvDaof21Lmz1zF1uVE-195" vertex="1">
          <mxGeometry y="990" width="120" height="25" as="geometry" />
        </mxCell>
        <mxCell id="Q6NvDaof21Lmz1zF1uVE-63" value="Export" style="rounded=1;whiteSpace=wrap;html=1;shadow=1;fillColor=#00274f;fontColor=#FFFFFF;" parent="Q6NvDaof21Lmz1zF1uVE-195" vertex="1">
          <mxGeometry y="920" width="120" height="20" as="geometry" />
        </mxCell>
        <mxCell id="Q6NvDaof21Lmz1zF1uVE-64" value="Basic" style="rounded=1;whiteSpace=wrap;html=1;shadow=1;fillColor=#00274f;fontColor=#FFFFFF;" parent="Q6NvDaof21Lmz1zF1uVE-195" vertex="1">
          <mxGeometry y="520" width="120" height="20" as="geometry" />
        </mxCell>
        <mxCell id="Q6NvDaof21Lmz1zF1uVE-219" style="edgeStyle=orthogonalEdgeStyle;rounded=0;orthogonalLoop=1;jettySize=auto;html=1;exitX=0.5;exitY=1;exitDx=0;exitDy=0;entryX=0.5;entryY=0;entryDx=0;entryDy=0;fontSize=10;fontColor=#FFFFFF;" parent="Q6NvDaof21Lmz1zF1uVE-195" source="Q6NvDaof21Lmz1zF1uVE-67" target="Q6NvDaof21Lmz1zF1uVE-180" edge="1">
          <mxGeometry relative="1" as="geometry" />
        </mxCell>
        <mxCell id="Q6NvDaof21Lmz1zF1uVE-67" value="Add Factors" style="rounded=1;whiteSpace=wrap;html=1;shadow=1;fillColor=#00274f;fontColor=#FFFFFF;" parent="Q6NvDaof21Lmz1zF1uVE-195" vertex="1">
          <mxGeometry y="310" width="120" height="20" as="geometry" />
        </mxCell>
        <mxCell id="Q6NvDaof21Lmz1zF1uVE-68" value="Save" style="rounded=1;whiteSpace=wrap;html=1;shadow=1;fillColor=#00274f;fontColor=#FFFFFF;" parent="Q6NvDaof21Lmz1zF1uVE-195" vertex="1">
          <mxGeometry y="170" width="120" height="30" as="geometry" />
        </mxCell>
        <mxCell id="Q6NvDaof21Lmz1zF1uVE-216" style="edgeStyle=orthogonalEdgeStyle;rounded=0;orthogonalLoop=1;jettySize=auto;html=1;exitX=0.5;exitY=1;exitDx=0;exitDy=0;entryX=0.5;entryY=0;entryDx=0;entryDy=0;fontSize=10;fontColor=#FFFFFF;" parent="Q6NvDaof21Lmz1zF1uVE-195" source="Q6NvDaof21Lmz1zF1uVE-115" target="Q6NvDaof21Lmz1zF1uVE-114" edge="1">
          <mxGeometry relative="1" as="geometry" />
        </mxCell>
        <mxCell id="Q6NvDaof21Lmz1zF1uVE-115" value="Screen Criteria" style="rounded=1;whiteSpace=wrap;html=1;shadow=1;fillColor=#075a82;fontColor=#FFFFFF;" parent="Q6NvDaof21Lmz1zF1uVE-195" vertex="1">
          <mxGeometry y="205" width="120" height="30" as="geometry" />
        </mxCell>
        <mxCell id="Q6NvDaof21Lmz1zF1uVE-116" value="Factor Expression" style="rounded=1;whiteSpace=wrap;html=1;shadow=1;fillColor=#075a82;fontColor=#FFFFFF;" parent="Q6NvDaof21Lmz1zF1uVE-195" vertex="1">
          <mxGeometry y="430" width="120" height="20" as="geometry" />
        </mxCell>
        <mxCell id="Q6NvDaof21Lmz1zF1uVE-117" value="Add Columns" style="rounded=1;whiteSpace=wrap;html=1;shadow=1;fillColor=#075a82;fontColor=#FFFFFF;" parent="Q6NvDaof21Lmz1zF1uVE-195" vertex="1">
          <mxGeometry y="450" width="120" height="20" as="geometry" />
        </mxCell>
        <mxCell id="Q6NvDaof21Lmz1zF1uVE-119" value="New Screen" style="rounded=1;whiteSpace=wrap;html=1;shadow=1;fillColor=#075a82;fontColor=#FFFFFF;" parent="Q6NvDaof21Lmz1zF1uVE-195" vertex="1">
          <mxGeometry y="50" width="120" height="30" as="geometry" />
        </mxCell>
        <mxCell id="Q6NvDaof21Lmz1zF1uVE-215" style="edgeStyle=orthogonalEdgeStyle;rounded=0;orthogonalLoop=1;jettySize=auto;html=1;exitX=0.5;exitY=1;exitDx=0;exitDy=0;entryX=0.5;entryY=0;entryDx=0;entryDy=0;fontSize=10;fontColor=#FFFFFF;" parent="Q6NvDaof21Lmz1zF1uVE-195" source="Q6NvDaof21Lmz1zF1uVE-179" target="Q6NvDaof21Lmz1zF1uVE-68" edge="1">
          <mxGeometry relative="1" as="geometry" />
        </mxCell>
        <mxCell id="Q6NvDaof21Lmz1zF1uVE-179" value="Create Screen Name" style="rounded=1;whiteSpace=wrap;html=1;shadow=1;fillColor=#E6E6E6;" parent="Q6NvDaof21Lmz1zF1uVE-195" vertex="1">
          <mxGeometry y="120" width="120" height="30" as="geometry" />
        </mxCell>
        <mxCell id="Q6NvDaof21Lmz1zF1uVE-180" value="List of Factors" style="rounded=1;whiteSpace=wrap;html=1;shadow=1;fillColor=#E6E6E6;" parent="Q6NvDaof21Lmz1zF1uVE-195" vertex="1">
          <mxGeometry y="350" width="120" height="20" as="geometry" />
        </mxCell>
        <mxCell id="Q6NvDaof21Lmz1zF1uVE-182" value="As CSV" style="rounded=1;whiteSpace=wrap;html=1;shadow=1;fillColor=#E6E6E6;" parent="Q6NvDaof21Lmz1zF1uVE-195" vertex="1">
          <mxGeometry y="940" width="120" height="20" as="geometry" />
        </mxCell>
        <mxCell id="Q6NvDaof21Lmz1zF1uVE-184" value="As CSV" style="rounded=1;whiteSpace=wrap;html=1;shadow=1;fillColor=#E6E6E6;" parent="Q6NvDaof21Lmz1zF1uVE-195" vertex="1">
          <mxGeometry y="830" width="120" height="20" as="geometry" />
        </mxCell>
        <mxCell id="Q6NvDaof21Lmz1zF1uVE-186" value="As CSV" style="rounded=1;whiteSpace=wrap;html=1;shadow=1;fillColor=#E6E6E6;" parent="Q6NvDaof21Lmz1zF1uVE-195" vertex="1">
          <mxGeometry y="690" width="120" height="20" as="geometry" />
        </mxCell>
        <mxCell id="Q6NvDaof21Lmz1zF1uVE-220" style="edgeStyle=orthogonalEdgeStyle;rounded=0;orthogonalLoop=1;jettySize=auto;html=1;exitX=0.5;exitY=1;exitDx=0;exitDy=0;entryX=0.5;entryY=0;entryDx=0;entryDy=0;fontSize=10;fontColor=#FFFFFF;" parent="Q6NvDaof21Lmz1zF1uVE-195" source="Q6NvDaof21Lmz1zF1uVE-187" target="Q6NvDaof21Lmz1zF1uVE-116" edge="1">
          <mxGeometry relative="1" as="geometry" />
        </mxCell>
        <mxCell id="Q6NvDaof21Lmz1zF1uVE-187" value="Advanced" style="rounded=1;whiteSpace=wrap;html=1;shadow=1;fillColor=#00274f;fontColor=#FFFFFF;" parent="Q6NvDaof21Lmz1zF1uVE-195" vertex="1">
          <mxGeometry y="385" width="120" height="30" as="geometry" />
        </mxCell>
        <mxCell id="Q6NvDaof21Lmz1zF1uVE-214" style="edgeStyle=orthogonalEdgeStyle;rounded=0;orthogonalLoop=1;jettySize=auto;html=1;exitX=0.5;exitY=1;exitDx=0;exitDy=0;entryX=0.5;entryY=0;entryDx=0;entryDy=0;fontSize=10;fontColor=#FFFFFF;" parent="Q6NvDaof21Lmz1zF1uVE-195" source="Q6NvDaof21Lmz1zF1uVE-118" target="Q6NvDaof21Lmz1zF1uVE-179" edge="1">
          <mxGeometry relative="1" as="geometry" />
        </mxCell>
        <mxCell id="Q6NvDaof21Lmz1zF1uVE-118" value="My Screens" style="rounded=1;whiteSpace=wrap;html=1;shadow=1;fillColor=#075a82;fontColor=#FFFFFF;" parent="Q6NvDaof21Lmz1zF1uVE-195" vertex="1">
          <mxGeometry y="80" width="120" height="30" as="geometry" />
        </mxCell>
        <mxCell id="Q6NvDaof21Lmz1zF1uVE-114" value="All Issuers" style="rounded=1;whiteSpace=wrap;html=1;shadow=1;fillColor=#075a82;fontColor=#FFFFFF;" parent="Q6NvDaof21Lmz1zF1uVE-195" vertex="1">
          <mxGeometry y="250" width="120" height="20" as="geometry" />
        </mxCell>
        <mxCell id="Q6NvDaof21Lmz1zF1uVE-221" style="edgeStyle=orthogonalEdgeStyle;rounded=0;orthogonalLoop=1;jettySize=auto;html=1;exitX=1;exitY=0.5;exitDx=0;exitDy=0;entryX=1;entryY=0.5;entryDx=0;entryDy=0;fontSize=10;fontColor=#FFFFFF;" parent="Q6NvDaof21Lmz1zF1uVE-195" source="Q6NvDaof21Lmz1zF1uVE-65" target="Q6NvDaof21Lmz1zF1uVE-119" edge="1">
          <mxGeometry relative="1" as="geometry" />
        </mxCell>
        <mxCell id="Q6NvDaof21Lmz1zF1uVE-65" value="Reset" style="rounded=1;whiteSpace=wrap;html=1;shadow=1;fillColor=#00274f;fontColor=#FFFFFF;" parent="Q6NvDaof21Lmz1zF1uVE-195" vertex="1">
          <mxGeometry y="540" width="120" height="20" as="geometry" />
        </mxCell>
        <mxCell id="Q6NvDaof21Lmz1zF1uVE-66" value="Update" style="rounded=1;whiteSpace=wrap;html=1;shadow=1;fillColor=#00274f;fontColor=#FFFFFF;" parent="Q6NvDaof21Lmz1zF1uVE-195" vertex="1">
          <mxGeometry y="560" width="120" height="20" as="geometry" />
        </mxCell>
        <mxCell id="Q6NvDaof21Lmz1zF1uVE-59" value="Export" style="rounded=1;whiteSpace=wrap;html=1;shadow=1;fillColor=#00274f;fontColor=#FFFFFF;" parent="Q6NvDaof21Lmz1zF1uVE-195" vertex="1">
          <mxGeometry y="670" width="120" height="20" as="geometry" />
        </mxCell>
        <mxCell id="Q6NvDaof21Lmz1zF1uVE-52" value="Issuers" style="rounded=1;whiteSpace=wrap;html=1;shadow=1;fillColor=#3a8db5;" parent="Q6NvDaof21Lmz1zF1uVE-195" vertex="1">
          <mxGeometry y="620" width="120" height="30" as="geometry" />
        </mxCell>
        <mxCell id="Q6NvDaof21Lmz1zF1uVE-185" value="As Excel" style="rounded=1;whiteSpace=wrap;html=1;shadow=1;fillColor=#E6E6E6;" parent="Q6NvDaof21Lmz1zF1uVE-195" vertex="1">
          <mxGeometry y="710" width="120" height="20" as="geometry" />
        </mxCell>
        <mxCell id="Q6NvDaof21Lmz1zF1uVE-183" value="As Excel" style="rounded=1;whiteSpace=wrap;html=1;shadow=1;fillColor=#E6E6E6;" parent="Q6NvDaof21Lmz1zF1uVE-195" vertex="1">
          <mxGeometry y="850" width="120" height="20" as="geometry" />
        </mxCell>
        <mxCell id="Q6NvDaof21Lmz1zF1uVE-181" value="As Excel" style="rounded=1;whiteSpace=wrap;html=1;shadow=1;fillColor=#E6E6E6;" parent="Q6NvDaof21Lmz1zF1uVE-195" vertex="1">
          <mxGeometry y="960" width="120" height="20" as="geometry" />
        </mxCell>
        <mxCell id="Q6NvDaof21Lmz1zF1uVE-191" value="Export" style="rounded=1;whiteSpace=wrap;html=1;shadow=1;fillColor=#00274f;fontColor=#FFFFFF;" parent="Q6NvDaof21Lmz1zF1uVE-195" vertex="1">
          <mxGeometry y="810" width="120" height="20" as="geometry" />
        </mxCell>
        <mxCell id="Q6NvDaof21Lmz1zF1uVE-217" style="edgeStyle=orthogonalEdgeStyle;rounded=0;orthogonalLoop=1;jettySize=auto;html=1;exitX=0.5;exitY=1;exitDx=0;exitDy=0;entryX=0.5;entryY=0;entryDx=0;entryDy=0;fontSize=10;fontColor=#FFFFFF;" parent="Q6NvDaof21Lmz1zF1uVE-195" source="Q6NvDaof21Lmz1zF1uVE-113" target="Q6NvDaof21Lmz1zF1uVE-67" edge="1">
          <mxGeometry relative="1" as="geometry" />
        </mxCell>
        <mxCell id="Q6NvDaof21Lmz1zF1uVE-113" value="Custom Universe" style="rounded=1;whiteSpace=wrap;html=1;shadow=1;fillColor=#075a82;fontColor=#FFFFFF;" parent="Q6NvDaof21Lmz1zF1uVE-195" vertex="1">
          <mxGeometry y="270" width="120" height="20" as="geometry" />
        </mxCell>
        <mxCell id="Q6NvDaof21Lmz1zF1uVE-196" value="" style="group" parent="WIyWlLk6GJQsqaUBKTNV-1" vertex="1" connectable="0">
          <mxGeometry x="30" y="20" width="120" height="880" as="geometry" />
        </mxCell>
        <mxCell id="Q6NvDaof21Lmz1zF1uVE-198" style="edgeStyle=orthogonalEdgeStyle;rounded=0;orthogonalLoop=1;jettySize=auto;html=1;exitX=0.25;exitY=1;exitDx=0;exitDy=0;entryX=0;entryY=0.5;entryDx=0;entryDy=0;fontSize=10;fontColor=#FFFFFF;" parent="Q6NvDaof21Lmz1zF1uVE-196" source="Q6NvDaof21Lmz1zF1uVE-1" target="Q6NvDaof21Lmz1zF1uVE-92" edge="1">
          <mxGeometry relative="1" as="geometry">
            <Array as="points">
              <mxPoint x="-20" y="40" />
              <mxPoint x="-20" y="240" />
            </Array>
          </mxGeometry>
        </mxCell>
        <mxCell id="Q6NvDaof21Lmz1zF1uVE-1" value="Dashboard" style="rounded=1;whiteSpace=wrap;html=1;fillColor=#c1e4f7;shadow=1;fontStyle=1" parent="Q6NvDaof21Lmz1zF1uVE-196" vertex="1">
          <mxGeometry width="120" height="40" as="geometry" />
        </mxCell>
        <mxCell id="Q6NvDaof21Lmz1zF1uVE-11" value="Add Portfolio(s)" style="rounded=1;whiteSpace=wrap;html=1;fillColor=#c1e4f7;shadow=1;" parent="Q6NvDaof21Lmz1zF1uVE-196" vertex="1">
          <mxGeometry y="300" width="120" height="40" as="geometry" />
        </mxCell>
        <mxCell id="Q6NvDaof21Lmz1zF1uVE-13" value="Add Watchlist(s)" style="rounded=1;whiteSpace=wrap;html=1;fillColor=#c1e4f7;shadow=1;" parent="Q6NvDaof21Lmz1zF1uVE-196" vertex="1">
          <mxGeometry y="340" width="120" height="40" as="geometry" />
        </mxCell>
        <mxCell id="Q6NvDaof21Lmz1zF1uVE-203" style="edgeStyle=orthogonalEdgeStyle;rounded=0;orthogonalLoop=1;jettySize=auto;html=1;exitX=0.5;exitY=1;exitDx=0;exitDy=0;entryX=0.5;entryY=0;entryDx=0;entryDy=0;fontSize=10;fontColor=#FFFFFF;" parent="Q6NvDaof21Lmz1zF1uVE-196" source="Q6NvDaof21Lmz1zF1uVE-14" target="Q6NvDaof21Lmz1zF1uVE-122" edge="1">
          <mxGeometry relative="1" as="geometry" />
        </mxCell>
        <mxCell id="Q6NvDaof21Lmz1zF1uVE-14" value="All Categories Screens" style="rounded=1;whiteSpace=wrap;html=1;fillColor=#c1e4f7;shadow=1;" parent="Q6NvDaof21Lmz1zF1uVE-196" vertex="1">
          <mxGeometry y="640" width="120" height="40" as="geometry" />
        </mxCell>
        <mxCell id="Q6NvDaof21Lmz1zF1uVE-15" value="Screen Links" style="rounded=1;whiteSpace=wrap;html=1;fillColor=#c1e4f7;shadow=1;fontSize=10;" parent="Q6NvDaof21Lmz1zF1uVE-196" vertex="1">
          <mxGeometry x="5" y="120" width="110" height="20" as="geometry" />
        </mxCell>
        <mxCell id="Q6NvDaof21Lmz1zF1uVE-12" value="Add Index(es)" style="rounded=1;whiteSpace=wrap;html=1;fillColor=#c1e4f7;shadow=1;" parent="Q6NvDaof21Lmz1zF1uVE-196" vertex="1">
          <mxGeometry y="380" width="120" height="40" as="geometry" />
        </mxCell>
        <mxCell id="Q6NvDaof21Lmz1zF1uVE-199" style="edgeStyle=orthogonalEdgeStyle;rounded=0;orthogonalLoop=1;jettySize=auto;html=1;exitX=0;exitY=0.5;exitDx=0;exitDy=0;entryX=0;entryY=0.5;entryDx=0;entryDy=0;fontSize=10;fontColor=#FFFFFF;" parent="Q6NvDaof21Lmz1zF1uVE-196" source="Q6NvDaof21Lmz1zF1uVE-46" target="Q6NvDaof21Lmz1zF1uVE-57" edge="1">
          <mxGeometry relative="1" as="geometry">
            <Array as="points">
              <mxPoint x="-10" y="65" />
              <mxPoint x="-10" y="165" />
            </Array>
          </mxGeometry>
        </mxCell>
        <mxCell id="Q6NvDaof21Lmz1zF1uVE-46" value="My Screens" style="rounded=1;whiteSpace=wrap;html=1;shadow=1;fillColor=#3a8db5;" parent="Q6NvDaof21Lmz1zF1uVE-196" vertex="1">
          <mxGeometry y="50" width="120" height="30" as="geometry" />
        </mxCell>
        <mxCell id="Q6NvDaof21Lmz1zF1uVE-47" value="ISS Screens" style="rounded=1;whiteSpace=wrap;html=1;shadow=1;fillColor=#3a8db5;" parent="Q6NvDaof21Lmz1zF1uVE-196" vertex="1">
          <mxGeometry y="80" width="120" height="30" as="geometry" />
        </mxCell>
        <mxCell id="Q6NvDaof21Lmz1zF1uVE-57" value="More" style="rounded=1;whiteSpace=wrap;html=1;shadow=1;fillColor=#00274f;fontColor=#FFFFFF;" parent="Q6NvDaof21Lmz1zF1uVE-196" vertex="1">
          <mxGeometry y="150" width="120" height="30" as="geometry" />
        </mxCell>
        <mxCell id="Q6NvDaof21Lmz1zF1uVE-209" style="edgeStyle=orthogonalEdgeStyle;rounded=0;orthogonalLoop=1;jettySize=auto;html=1;exitX=1;exitY=0.5;exitDx=0;exitDy=0;entryX=1;entryY=0.5;entryDx=0;entryDy=0;fontSize=10;fontColor=#FFFFFF;" parent="Q6NvDaof21Lmz1zF1uVE-196" source="Q6NvDaof21Lmz1zF1uVE-92" target="Q6NvDaof21Lmz1zF1uVE-126" edge="1">
          <mxGeometry relative="1" as="geometry" />
        </mxCell>
        <mxCell id="Q6NvDaof21Lmz1zF1uVE-92" value="All Issuers" style="rounded=1;whiteSpace=wrap;html=1;shadow=1;fillColor=#075a82;fontColor=#FFFFFF;" parent="Q6NvDaof21Lmz1zF1uVE-196" vertex="1">
          <mxGeometry y="225" width="120" height="30" as="geometry" />
        </mxCell>
        <mxCell id="Q6NvDaof21Lmz1zF1uVE-93" value="Custom Universe" style="rounded=1;whiteSpace=wrap;html=1;shadow=1;fillColor=#075a82;fontColor=#FFFFFF;" parent="Q6NvDaof21Lmz1zF1uVE-196" vertex="1">
          <mxGeometry y="255" width="120" height="30" as="geometry" />
        </mxCell>
        <mxCell id="Q6NvDaof21Lmz1zF1uVE-212" style="edgeStyle=orthogonalEdgeStyle;rounded=0;orthogonalLoop=1;jettySize=auto;html=1;exitX=0.5;exitY=1;exitDx=0;exitDy=0;entryX=0.5;entryY=0;entryDx=0;entryDy=0;fontSize=10;fontColor=#FFFFFF;" parent="Q6NvDaof21Lmz1zF1uVE-196" source="Q6NvDaof21Lmz1zF1uVE-121" target="Q6NvDaof21Lmz1zF1uVE-120" edge="1">
          <mxGeometry relative="1" as="geometry" />
        </mxCell>
        <mxCell id="Q6NvDaof21Lmz1zF1uVE-121" value="Select Factor" style="rounded=1;whiteSpace=wrap;html=1;shadow=1;fillColor=#075a82;fontColor=#FFFFFF;" parent="Q6NvDaof21Lmz1zF1uVE-196" vertex="1">
          <mxGeometry y="720" width="120" height="30" as="geometry" />
        </mxCell>
        <mxCell id="Q6NvDaof21Lmz1zF1uVE-122" value="Saved Screens" style="rounded=1;whiteSpace=wrap;html=1;shadow=1;fillColor=#075a82;fontColor=#FFFFFF;" parent="Q6NvDaof21Lmz1zF1uVE-196" vertex="1">
          <mxGeometry y="690" width="120" height="20" as="geometry" />
        </mxCell>
        <mxCell id="Q6NvDaof21Lmz1zF1uVE-123" value="Search Attributes" style="rounded=1;whiteSpace=wrap;html=1;shadow=1;fillColor=#075a82;fontColor=#FFFFFF;" parent="Q6NvDaof21Lmz1zF1uVE-196" vertex="1">
          <mxGeometry y="610" width="120" height="20" as="geometry" />
        </mxCell>
        <mxCell id="Q6NvDaof21Lmz1zF1uVE-126" value="Select Screen" style="rounded=1;whiteSpace=wrap;html=1;shadow=1;fillColor=#075a82;fontColor=#FFFFFF;" parent="Q6NvDaof21Lmz1zF1uVE-196" vertex="1">
          <mxGeometry y="500" width="120" height="30" as="geometry" />
        </mxCell>
        <mxCell id="Q6NvDaof21Lmz1zF1uVE-177" value="My Chart" style="rounded=1;whiteSpace=wrap;html=1;shadow=1;fillColor=#E6E6E6;fontStyle=1" parent="Q6NvDaof21Lmz1zF1uVE-196" vertex="1">
          <mxGeometry y="185" width="120" height="30" as="geometry" />
        </mxCell>
        <mxCell id="Q6NvDaof21Lmz1zF1uVE-178" value="Search" style="rounded=1;whiteSpace=wrap;html=1;shadow=1;fillColor=#E6E6E6;" parent="Q6NvDaof21Lmz1zF1uVE-196" vertex="1">
          <mxGeometry y="450" width="120" height="20" as="geometry" />
        </mxCell>
        <mxCell id="Q6NvDaof21Lmz1zF1uVE-201" style="edgeStyle=orthogonalEdgeStyle;rounded=0;orthogonalLoop=1;jettySize=auto;html=1;exitX=0;exitY=0.5;exitDx=0;exitDy=0;entryX=0;entryY=0.5;entryDx=0;entryDy=0;fontSize=10;fontColor=#FFFFFF;" parent="Q6NvDaof21Lmz1zF1uVE-196" source="Q6NvDaof21Lmz1zF1uVE-125" target="Q6NvDaof21Lmz1zF1uVE-123" edge="1">
          <mxGeometry relative="1" as="geometry" />
        </mxCell>
        <mxCell id="Q6NvDaof21Lmz1zF1uVE-125" value="My Screens" style="rounded=1;whiteSpace=wrap;html=1;shadow=1;fillColor=#075a82;fontColor=#FFFFFF;" parent="Q6NvDaof21Lmz1zF1uVE-196" vertex="1">
          <mxGeometry y="530" width="120" height="30" as="geometry" />
        </mxCell>
        <mxCell id="Q6NvDaof21Lmz1zF1uVE-124" value="ISS Screens" style="rounded=1;whiteSpace=wrap;html=1;shadow=1;fillColor=#075a82;fontColor=#FFFFFF;" parent="Q6NvDaof21Lmz1zF1uVE-196" vertex="1">
          <mxGeometry y="560" width="120" height="30" as="geometry" />
        </mxCell>
        <mxCell id="Q6NvDaof21Lmz1zF1uVE-120" value="Factors" style="rounded=1;whiteSpace=wrap;html=1;shadow=1;fillColor=#075a82;fontColor=#FFFFFF;" parent="Q6NvDaof21Lmz1zF1uVE-196" vertex="1">
          <mxGeometry y="760" width="120" height="20" as="geometry" />
        </mxCell>
        <mxCell id="Q6NvDaof21Lmz1zF1uVE-210" style="edgeStyle=orthogonalEdgeStyle;rounded=0;orthogonalLoop=1;jettySize=auto;html=1;exitX=1;exitY=0.5;exitDx=0;exitDy=0;fontSize=10;fontColor=#FFFFFF;entryX=1;entryY=0.5;entryDx=0;entryDy=0;" parent="Q6NvDaof21Lmz1zF1uVE-196" source="Q6NvDaof21Lmz1zF1uVE-93" target="Q6NvDaof21Lmz1zF1uVE-126" edge="1">
          <mxGeometry relative="1" as="geometry">
            <mxPoint x="120" y="520" as="targetPoint" />
            <Array as="points">
              <mxPoint x="130" y="270" />
              <mxPoint x="130" y="515" />
            </Array>
          </mxGeometry>
        </mxCell>
        <mxCell id="Q6NvDaof21Lmz1zF1uVE-173" value="Aggregate Portfolio Value" style="rounded=1;whiteSpace=wrap;html=1;shadow=1;fillColor=#E6E6E6;" parent="WIyWlLk6GJQsqaUBKTNV-1" vertex="1">
          <mxGeometry x="513.5" y="480" width="120" height="30" as="geometry" />
        </mxCell>
        <mxCell id="Q6NvDaof21Lmz1zF1uVE-32" value="Benchmark" style="rounded=1;whiteSpace=wrap;html=1;fillColor=#c1e4f7;shadow=1;" parent="WIyWlLk6GJQsqaUBKTNV-1" vertex="1">
          <mxGeometry x="513.5" y="520" width="120" height="20" as="geometry" />
        </mxCell>
        <mxCell id="Q6NvDaof21Lmz1zF1uVE-31" value="Analysis Currency" style="rounded=1;whiteSpace=wrap;html=1;fillColor=#c1e4f7;shadow=1;" parent="WIyWlLk6GJQsqaUBKTNV-1" vertex="1">
          <mxGeometry x="513.5" y="585" width="120" height="20" as="geometry" />
        </mxCell>
        <mxCell id="Q6NvDaof21Lmz1zF1uVE-30" value="Profile" style="rounded=1;whiteSpace=wrap;html=1;fillColor=#c1e4f7;shadow=1;" parent="WIyWlLk6GJQsqaUBKTNV-1" vertex="1">
          <mxGeometry x="513.5" y="610" width="120" height="20" as="geometry" />
        </mxCell>
        <mxCell id="Q6NvDaof21Lmz1zF1uVE-197" style="edgeStyle=orthogonalEdgeStyle;rounded=0;orthogonalLoop=1;jettySize=auto;html=1;exitX=0.5;exitY=1;exitDx=0;exitDy=0;fontSize=10;fontColor=#FFFFFF;" parent="WIyWlLk6GJQsqaUBKTNV-1" source="Q6NvDaof21Lmz1zF1uVE-1" edge="1">
          <mxGeometry relative="1" as="geometry">
            <mxPoint x="90" y="70" as="targetPoint" />
          </mxGeometry>
        </mxCell>
        <mxCell id="Q6NvDaof21Lmz1zF1uVE-200" style="edgeStyle=orthogonalEdgeStyle;rounded=0;orthogonalLoop=1;jettySize=auto;html=1;exitX=0.5;exitY=1;exitDx=0;exitDy=0;fontSize=10;fontColor=#FFFFFF;" parent="WIyWlLk6GJQsqaUBKTNV-1" source="Q6NvDaof21Lmz1zF1uVE-47" edge="1">
          <mxGeometry relative="1" as="geometry">
            <mxPoint x="90" y="140" as="targetPoint" />
          </mxGeometry>
        </mxCell>
        <mxCell id="Q6NvDaof21Lmz1zF1uVE-202" style="edgeStyle=orthogonalEdgeStyle;rounded=0;orthogonalLoop=1;jettySize=auto;html=1;exitX=0;exitY=0.5;exitDx=0;exitDy=0;fontSize=10;fontColor=#FFFFFF;" parent="WIyWlLk6GJQsqaUBKTNV-1" source="Q6NvDaof21Lmz1zF1uVE-124" edge="1">
          <mxGeometry relative="1" as="geometry">
            <mxPoint x="30.14285714285711" y="640" as="targetPoint" />
            <Array as="points">
              <mxPoint x="10" y="595" />
              <mxPoint x="10" y="640" />
            </Array>
          </mxGeometry>
        </mxCell>
        <mxCell id="Q6NvDaof21Lmz1zF1uVE-205" style="edgeStyle=orthogonalEdgeStyle;rounded=0;orthogonalLoop=1;jettySize=auto;html=1;exitX=0.5;exitY=1;exitDx=0;exitDy=0;fontSize=10;fontColor=#FFFFFF;" parent="WIyWlLk6GJQsqaUBKTNV-1" source="Q6NvDaof21Lmz1zF1uVE-93" edge="1">
          <mxGeometry relative="1" as="geometry">
            <mxPoint x="90.14285714285711" y="320" as="targetPoint" />
          </mxGeometry>
        </mxCell>
        <mxCell id="Q6NvDaof21Lmz1zF1uVE-206" style="edgeStyle=orthogonalEdgeStyle;rounded=0;orthogonalLoop=1;jettySize=auto;html=1;exitX=0.5;exitY=1;exitDx=0;exitDy=0;fontSize=10;fontColor=#FFFFFF;" parent="WIyWlLk6GJQsqaUBKTNV-1" source="Q6NvDaof21Lmz1zF1uVE-12" edge="1">
          <mxGeometry relative="1" as="geometry">
            <mxPoint x="90.14285714285711" y="470" as="targetPoint" />
          </mxGeometry>
        </mxCell>
        <mxCell id="Q6NvDaof21Lmz1zF1uVE-207" style="edgeStyle=orthogonalEdgeStyle;rounded=0;orthogonalLoop=1;jettySize=auto;html=1;exitX=1;exitY=0.5;exitDx=0;exitDy=0;entryX=0;entryY=0.5;entryDx=0;entryDy=0;fontSize=10;fontColor=#FFFFFF;" parent="WIyWlLk6GJQsqaUBKTNV-1" source="Q6NvDaof21Lmz1zF1uVE-15" target="Q6NvDaof21Lmz1zF1uVE-119" edge="1">
          <mxGeometry relative="1" as="geometry">
            <Array as="points">
              <mxPoint x="160" y="150" />
              <mxPoint x="160" y="85" />
            </Array>
          </mxGeometry>
        </mxCell>
        <mxCell id="Q6NvDaof21Lmz1zF1uVE-208" style="edgeStyle=orthogonalEdgeStyle;rounded=0;orthogonalLoop=1;jettySize=auto;html=1;exitX=1;exitY=0.5;exitDx=0;exitDy=0;entryX=0;entryY=0.5;entryDx=0;entryDy=0;fontSize=10;fontColor=#FFFFFF;" parent="WIyWlLk6GJQsqaUBKTNV-1" source="Q6NvDaof21Lmz1zF1uVE-57" target="Q6NvDaof21Lmz1zF1uVE-118" edge="1">
          <mxGeometry relative="1" as="geometry" />
        </mxCell>
        <mxCell id="Q6NvDaof21Lmz1zF1uVE-211" style="edgeStyle=orthogonalEdgeStyle;rounded=0;orthogonalLoop=1;jettySize=auto;html=1;exitX=1;exitY=0.5;exitDx=0;exitDy=0;entryX=0;entryY=0.5;entryDx=0;entryDy=0;fontSize=10;fontColor=#FFFFFF;" parent="WIyWlLk6GJQsqaUBKTNV-1" source="Q6NvDaof21Lmz1zF1uVE-125" target="Q6NvDaof21Lmz1zF1uVE-118" edge="1">
          <mxGeometry relative="1" as="geometry">
            <Array as="points">
              <mxPoint x="180" y="565" />
              <mxPoint x="180" y="115" />
            </Array>
          </mxGeometry>
        </mxCell>
        <mxCell id="tMFDblHWtB-Guuc8-DbZ-5" style="edgeStyle=orthogonalEdgeStyle;rounded=0;orthogonalLoop=1;jettySize=auto;html=1;exitX=0.5;exitY=1;exitDx=0;exitDy=0;" parent="WIyWlLk6GJQsqaUBKTNV-1" source="Q6NvDaof21Lmz1zF1uVE-150" edge="1">
          <mxGeometry relative="1" as="geometry">
            <mxPoint x="1220" y="430.0000000000001" as="targetPoint" />
          </mxGeometry>
        </mxCell>
        <mxCell id="tMFDblHWtB-Guuc8-DbZ-6" style="edgeStyle=orthogonalEdgeStyle;rounded=0;orthogonalLoop=1;jettySize=auto;html=1;exitX=0.5;exitY=1;exitDx=0;exitDy=0;" parent="WIyWlLk6GJQsqaUBKTNV-1" source="Q6NvDaof21Lmz1zF1uVE-45" edge="1">
          <mxGeometry relative="1" as="geometry">
            <mxPoint x="1220" y="560" as="targetPoint" />
          </mxGeometry>
        </mxCell>
        <mxCell id="tMFDblHWtB-Guuc8-DbZ-7" style="edgeStyle=orthogonalEdgeStyle;rounded=0;orthogonalLoop=1;jettySize=auto;html=1;exitX=0.5;exitY=1;exitDx=0;exitDy=0;" parent="WIyWlLk6GJQsqaUBKTNV-1" source="Q6NvDaof21Lmz1zF1uVE-148" edge="1">
          <mxGeometry relative="1" as="geometry">
            <mxPoint x="1220" y="630" as="targetPoint" />
          </mxGeometry>
        </mxCell>
        <mxCell id="tMFDblHWtB-Guuc8-DbZ-11" style="edgeStyle=orthogonalEdgeStyle;rounded=0;orthogonalLoop=1;jettySize=auto;html=1;exitX=0.5;exitY=1;exitDx=0;exitDy=0;" parent="WIyWlLk6GJQsqaUBKTNV-1" source="Q6NvDaof21Lmz1zF1uVE-144" edge="1">
          <mxGeometry relative="1" as="geometry">
            <mxPoint x="1220" y="870" as="targetPoint" />
          </mxGeometry>
        </mxCell>
        <mxCell id="tMFDblHWtB-Guuc8-DbZ-20" style="edgeStyle=orthogonalEdgeStyle;rounded=0;orthogonalLoop=1;jettySize=auto;html=1;exitX=0.5;exitY=1;exitDx=0;exitDy=0;" parent="WIyWlLk6GJQsqaUBKTNV-1" source="Q6NvDaof21Lmz1zF1uVE-38" edge="1">
          <mxGeometry relative="1" as="geometry">
            <mxPoint x="886.8095238095239" y="310" as="targetPoint" />
          </mxGeometry>
        </mxCell>
        <mxCell id="tMFDblHWtB-Guuc8-DbZ-21" style="edgeStyle=orthogonalEdgeStyle;rounded=0;orthogonalLoop=1;jettySize=auto;html=1;exitX=0.5;exitY=1;exitDx=0;exitDy=0;" parent="WIyWlLk6GJQsqaUBKTNV-1" source="Q6NvDaof21Lmz1zF1uVE-168" edge="1">
          <mxGeometry relative="1" as="geometry">
            <mxPoint x="888.7142857142856" y="460" as="targetPoint" />
          </mxGeometry>
        </mxCell>
        <mxCell id="w-_JFtuls0eAX1BSivLM-5" style="edgeStyle=orthogonalEdgeStyle;rounded=0;orthogonalLoop=1;jettySize=auto;html=1;exitX=0.5;exitY=1;exitDx=0;exitDy=0;" edge="1" parent="WIyWlLk6GJQsqaUBKTNV-1" source="Q6NvDaof21Lmz1zF1uVE-111">
          <mxGeometry relative="1" as="geometry">
            <mxPoint x="574" y="200" as="targetPoint" />
          </mxGeometry>
        </mxCell>
        <mxCell id="w-_JFtuls0eAX1BSivLM-6" style="edgeStyle=orthogonalEdgeStyle;rounded=0;orthogonalLoop=1;jettySize=auto;html=1;exitX=0;exitY=0.5;exitDx=0;exitDy=0;entryX=1;entryY=0.5;entryDx=0;entryDy=0;" edge="1" parent="WIyWlLk6GJQsqaUBKTNV-1" source="Q6NvDaof21Lmz1zF1uVE-42" target="Q6NvDaof21Lmz1zF1uVE-111">
          <mxGeometry relative="1" as="geometry">
            <Array as="points">
              <mxPoint x="660" y="560" />
              <mxPoint x="660" y="165" />
            </Array>
          </mxGeometry>
        </mxCell>
        <mxCell id="w-_JFtuls0eAX1BSivLM-7" style="edgeStyle=orthogonalEdgeStyle;rounded=0;orthogonalLoop=1;jettySize=auto;html=1;exitX=0;exitY=0.5;exitDx=0;exitDy=0;entryX=1;entryY=0.5;entryDx=0;entryDy=0;" edge="1" parent="WIyWlLk6GJQsqaUBKTNV-1" source="Q6NvDaof21Lmz1zF1uVE-82" target="Q6NvDaof21Lmz1zF1uVE-111">
          <mxGeometry relative="1" as="geometry">
            <Array as="points">
              <mxPoint x="660" y="700" />
              <mxPoint x="660" y="165" />
            </Array>
          </mxGeometry>
        </mxCell>
        <mxCell id="w-_JFtuls0eAX1BSivLM-8" style="edgeStyle=orthogonalEdgeStyle;rounded=0;orthogonalLoop=1;jettySize=auto;html=1;exitX=0;exitY=0.5;exitDx=0;exitDy=0;" edge="1" parent="WIyWlLk6GJQsqaUBKTNV-1" source="Q6NvDaof21Lmz1zF1uVE-39">
          <mxGeometry relative="1" as="geometry">
            <mxPoint x="810" y="560" as="targetPoint" />
          </mxGeometry>
        </mxCell>
        <mxCell id="w-_JFtuls0eAX1BSivLM-9" style="edgeStyle=orthogonalEdgeStyle;rounded=0;orthogonalLoop=1;jettySize=auto;html=1;exitX=0.5;exitY=1;exitDx=0;exitDy=0;" edge="1" parent="WIyWlLk6GJQsqaUBKTNV-1" source="Q6NvDaof21Lmz1zF1uVE-170">
          <mxGeometry relative="1" as="geometry">
            <mxPoint x="810" y="510" as="targetPoint" />
            <Array as="points">
              <mxPoint x="887" y="510" />
            </Array>
          </mxGeometry>
        </mxCell>
      </root>
    </mxGraphModel>
  </diagram>
</mxfile>
